<?xml version="1.0" encoding="UTF-8" ?>
<!DOCTYPE svg PUBLIC "-//W3C//DTD SVG 1.1//EN" "http://www.w3.org/Graphics/SVG/1.1/DTD/svg11.dtd">
<svg width="1063pt" height="1500pt" viewBox="0 0 1063 1500" version="1.1" xmlns="http://www.w3.org/2000/svg">
<g id="#3f04e5ff">
<path fill="#3f04e5" opacity="1.00" d=" M 524.27 3.99 C 554.94 14.89 585.58 25.82 616.22 36.80 C 622.39 39.29 628.90 40.70 635.23 42.72 C 690.17 59.50 742.35 83.90 796.63 102.53 C 870.28 131.19 945.03 157.26 1016.97 190.13 C 1029.05 195.46 1043.70 198.69 1051.24 210.59 C 1055.24 216.33 1053.46 223.46 1054.13 229.95 C 1053.52 271.51 1053.83 313.10 1054.10 354.67 C 1053.86 372.24 1054.08 389.82 1054.42 407.38 C 1054.60 437.61 1054.76 467.84 1055.23 498.06 C 1055.23 513.53 1056.02 529.02 1055.45 544.47 C 1051.01 552.25 1046.15 561.19 1037.11 564.21 C 1013.74 569.58 990.45 575.32 966.94 580.08 C 940.79 585.65 914.37 589.81 887.90 593.57 C 882.85 594.43 877.63 593.35 872.64 594.67 C 868.23 595.75 863.92 597.25 859.77 599.09 C 855.68 601.04 851.04 599.55 846.78 600.71 C 842.69 601.41 839.19 603.97 835.05 604.50 C 821.60 606.79 808.23 609.70 794.74 611.72 C 792.44 612.70 791.60 615.67 789.03 616.03 C 782.09 617.64 775.01 619.43 768.89 623.21 C 787.46 627.20 806.27 629.97 825.05 632.78 C 828.80 633.27 832.23 635.11 836.02 635.49 C 867.12 640.90 898.19 646.47 929.29 651.90 C 939.60 653.40 949.65 656.27 959.96 657.80 C 970.06 658.68 979.91 661.20 989.92 662.67 C 998.30 664.07 1006.67 665.50 1015.02 667.09 C 1018.38 667.63 1021.73 668.34 1025.16 668.49 C 1025.66 668.13 1026.66 667.40 1027.16 667.04 C 1031.69 668.95 1036.22 671.01 1040.40 673.62 C 1043.59 676.82 1047.78 679.69 1048.58 684.48 C 1052.38 705.94 1051.42 727.89 1050.59 749.56 C 1049.77 774.34 1050.47 799.17 1050.34 823.98 C 1050.44 858.65 1050.35 893.32 1050.38 927.99 C 1050.11 957.98 1051.18 987.97 1050.10 1017.95 C 1050.26 1020.80 1046.85 1021.53 1045.09 1023.09 C 1038.27 1027.14 1032.39 1032.97 1024.91 1035.76 C 1002.34 1040.70 979.63 1045.01 957.02 1049.75 C 910.65 1059.14 864.36 1068.89 817.94 1078.02 C 725.23 1096.34 632.57 1114.91 539.92 1133.59 C 537.49 1134.22 534.73 1134.12 532.61 1135.60 C 530.51 1137.87 531.71 1141.35 533.67 1143.33 C 535.68 1146.04 538.43 1148.03 541.55 1149.30 C 544.34 1150.72 547.15 1152.13 550.15 1153.08 C 556.10 1155.10 561.45 1158.55 567.46 1160.42 C 576.16 1162.86 584.44 1166.53 592.83 1169.84 C 614.17 1178.44 635.76 1186.47 657.02 1195.31 C 661.12 1196.28 665.33 1200.11 669.57 1197.69 C 672.34 1198.11 675.07 1197.31 677.80 1196.87 C 675.82 1203.61 671.55 1210.39 664.43 1212.43 C 627.99 1228.24 591.81 1244.67 555.33 1260.41 C 535.06 1269.38 515.80 1280.76 494.62 1287.58 C 492.42 1288.36 490.00 1288.64 487.98 1289.88 C 484.34 1291.98 480.77 1294.21 477.08 1296.23 C 477.39 1297.11 477.71 1298.00 478.03 1298.91 C 489.86 1339.81 504.42 1379.85 517.71 1420.29 C 519.45 1425.88 521.22 1431.48 523.42 1436.92 C 525.44 1446.93 527.83 1456.92 529.35 1467.02 C 528.00 1471.80 523.73 1475.01 520.67 1478.74 C 517.82 1482.56 512.36 1483.40 508.10 1481.67 C 348.14 1419.64 188.02 1357.99 27.95 1296.24 C 21.47 1293.69 14.80 1291.53 8.57 1288.43 C 5.22 1285.88 7.25 1281.45 7.27 1277.99 C 7.84 1219.67 7.60 1161.34 7.37 1103.02 C 7.19 1094.35 7.67 1085.65 6.73 1077.02 C 6.78 1038.02 6.57 999.01 6.67 960.01 C 5.99 948.99 8.93 937.44 15.94 928.79 C 51.35 922.55 86.56 915.12 121.88 908.33 C 161.56 900.49 201.30 892.96 240.95 885.01 C 255.85 883.55 270.43 879.83 285.22 877.52 C 289.99 876.92 295.54 874.19 296.29 868.93 C 296.23 866.53 294.40 864.76 292.80 863.20 C 290.64 860.72 287.11 860.93 284.15 860.40 C 196.44 847.25 108.73 834.14 21.02 821.00 C 15.36 820.20 9.89 817.02 7.72 811.53 C 6.85 806.76 6.49 801.90 6.67 797.05 C 6.87 787.36 6.49 777.65 7.11 767.98 C 7.90 718.00 7.18 668.01 8.14 618.04 C 8.35 577.36 8.10 536.64 9.05 495.99 C 9.16 486.67 9.28 477.33 9.26 468.00 C 9.49 465.80 7.30 463.12 9.49 461.46 C 10.62 460.18 12.40 460.00 13.95 459.57 C 117.11 435.38 221.41 416.49 324.88 393.70 C 339.02 390.33 353.50 388.78 367.83 386.50 C 394.09 382.61 420.43 378.56 445.95 371.07 C 465.09 365.26 485.21 364.61 504.93 362.16 C 510.58 361.97 516.30 361.05 521.34 358.35 C 522.87 357.45 523.25 355.64 523.32 354.00 C 484.18 337.20 446.12 317.87 406.36 302.51 C 401.16 299.35 396.00 296.07 390.27 293.89 C 386.55 292.01 380.46 290.92 380.78 285.57 C 381.78 283.95 383.19 282.67 384.74 281.60 C 389.31 282.76 393.25 279.89 397.28 278.26 C 400.73 276.55 404.45 275.51 408.11 274.34 C 409.75 273.68 411.35 272.92 412.96 272.19 C 416.92 270.58 420.42 268.03 424.29 266.24 C 432.80 262.36 441.28 258.44 450.05 255.18 C 452.98 254.33 455.21 252.10 456.64 249.46 C 468.65 244.05 481.10 239.68 493.04 234.10 C 499.71 231.20 506.14 227.76 512.88 225.03 C 530.33 217.71 547.65 209.97 564.41 201.15 C 568.76 199.26 572.75 196.60 577.27 195.12 C 580.94 193.80 582.30 189.55 582.09 185.97 C 582.41 181.18 580.77 176.59 578.53 172.44 C 576.86 169.58 577.77 166.11 576.62 163.10 C 565.56 129.59 554.61 96.04 543.55 62.54 C 541.62 56.02 538.90 49.73 537.78 43.00 C 536.87 37.69 533.80 33.16 532.26 28.06 C 529.56 20.05 527.02 11.99 524.27 3.99 M 538.22 17.06 C 541.56 29.01 543.97 41.39 549.50 52.58 C 554.54 57.68 561.59 60.15 568.10 62.83 C 613.48 80.13 658.90 97.33 704.16 114.95 C 787.52 147.27 870.66 180.15 954.14 212.16 C 983.23 223.22 1012.20 234.64 1041.51 245.09 C 1041.55 235.29 1045.29 224.30 1039.44 215.45 C 1033.20 207.54 1023.74 203.08 1014.58 199.43 C 981.82 186.77 948.86 174.61 916.13 161.84 C 790.22 113.43 665.19 62.66 538.22 17.06 M 556.40 71.63 C 559.87 84.87 564.17 97.87 568.09 110.97 C 684.08 154.89 799.45 200.41 915.18 244.99 C 930.97 251.02 946.22 258.99 962.98 262.03 C 982.83 263.49 1002.12 257.40 1021.01 252.14 C 1018.52 250.83 1015.98 249.64 1013.38 248.57 C 979.01 233.54 943.72 220.76 908.74 207.23 C 870.68 192.11 832.28 177.84 794.16 162.87 C 715.07 132.03 636.17 100.68 556.40 71.63 M 572.60 125.89 C 576.81 138.18 581.19 150.42 585.20 162.77 C 585.67 163.86 585.85 165.44 587.23 165.76 C 677.58 201.14 768.18 235.91 858.49 271.38 C 865.83 274.09 872.95 277.77 880.82 278.70 C 896.70 280.87 912.41 276.20 927.43 271.57 C 931.36 270.21 935.52 269.46 939.29 267.62 C 817.41 219.48 695.29 171.92 572.60 125.89 M 594.52 181.26 C 594.98 186.81 595.76 192.34 595.99 197.91 C 590.93 202.30 585.91 206.74 580.92 211.21 C 649.68 238.83 719.11 264.78 788.09 291.86 C 795.55 295.12 803.84 296.00 811.91 295.42 C 827.45 294.32 842.11 288.62 857.28 285.52 C 852.68 283.00 847.72 281.24 842.96 279.06 C 761.11 244.05 676.94 214.86 594.52 181.26 M 521.57 236.79 C 582.81 260.36 643.96 284.16 705.10 307.98 C 712.01 310.85 719.54 312.01 726.99 311.78 C 744.85 311.29 761.71 304.64 779.18 301.68 C 755.32 291.60 731.13 282.30 706.99 272.91 C 665.63 257.00 624.21 241.23 583.09 224.70 C 575.33 221.78 567.42 218.15 559.00 218.08 C 545.47 221.85 533.39 229.41 521.57 236.79 M 497.38 245.54 C 484.97 248.47 474.31 255.79 462.98 261.28 C 515.64 283.14 569.13 302.98 622.20 323.81 C 629.99 327.14 638.54 328.46 646.98 328.07 C 663.12 327.22 678.51 321.84 694.05 317.83 C 675.09 309.01 655.55 301.40 636.15 293.57 C 595.59 277.40 554.52 262.51 514.11 245.97 C 508.72 244.19 502.87 244.29 497.38 245.54 M 1035.11 261.39 C 1034.68 261.36 1033.82 261.29 1033.39 261.26 L 1033.20 262.11 L 1031.97 261.83 L 1031.14 262.48 C 1030.71 262.44 1029.84 262.35 1029.41 262.31 L 1029.23 263.16 L 1027.96 262.85 L 1027.15 263.52 C 1026.72 263.47 1025.85 263.37 1025.42 263.32 L 1025.21 264.17 L 1023.98 263.86 L 1023.16 264.50 L 1022.38 264.00 L 1021.40 264.38 L 1021.22 265.24 C 1019.14 264.87 1017.11 265.80 1015.11 266.19 C 1007.83 268.13 1000.37 269.36 993.14 271.42 L 992.38 270.90 L 991.40 271.27 L 991.21 272.14 C 988.81 271.71 986.45 272.78 984.12 273.15 C 946.90 281.08 909.26 287.14 872.15 295.48 C 871.71 295.44 870.84 295.36 870.40 295.33 L 870.21 296.19 C 868.84 295.74 867.49 296.29 866.16 296.51 C 853.72 299.49 841.12 301.75 828.59 304.32 C 775.36 315.00 722.14 325.66 668.91 336.32 C 659.00 338.47 648.93 340.02 639.12 342.53 C 638.69 342.48 637.83 342.38 637.40 342.33 L 637.19 343.17 C 636.43 343.26 634.91 343.43 634.15 343.52 C 633.72 343.47 632.84 343.39 632.40 343.35 L 632.20 344.20 C 629.81 343.74 627.43 344.76 625.09 345.12 C 577.42 354.72 529.75 364.29 482.08 373.88 C 471.46 376.17 460.65 377.87 450.14 380.53 C 449.70 380.49 448.83 380.39 448.40 380.34 L 448.18 381.20 C 445.80 380.73 443.43 381.76 441.09 382.12 C 326.37 405.22 211.63 428.29 96.90 451.38 C 82.01 454.52 66.96 457.12 52.13 460.51 C 51.70 460.46 50.84 460.35 50.41 460.30 L 50.20 461.14 C 49.44 461.24 47.93 461.45 47.17 461.55 C 46.74 461.49 45.88 461.39 45.44 461.34 L 45.23 462.18 L 43.97 461.86 L 43.14 462.49 C 42.71 462.44 41.84 462.35 41.41 462.30 L 41.21 463.15 L 39.98 462.85 L 39.13 463.52 C 38.69 463.50 37.82 463.45 37.39 463.43 L 37.21 464.29 L 36.00 464.00 C 35.59 464.08 34.78 464.25 34.38 464.33 L 34.40 465.18 C 27.29 465.80 18.83 470.50 18.06 478.22 L 17.18 478.32 L 16.72 479.26 L 17.17 480.07 C 15.18 487.19 15.88 494.72 15.71 502.04 C 15.77 588.19 15.56 674.34 15.92 760.49 C 16.40 760.23 17.37 759.72 17.86 759.46 L 18.62 760.01 L 19.60 759.68 L 19.79 758.83 L 21.05 759.14 L 21.85 758.51 C 22.28 758.56 23.14 758.65 23.58 758.70 L 23.77 757.85 L 25.03 758.18 L 25.89 757.50 C 26.32 757.56 27.18 757.66 27.61 757.71 L 27.82 756.87 L 29.01 757.19 L 29.87 756.62 L 30.62 757.15 L 31.61 756.79 L 31.80 755.92 C 34.20 756.30 36.61 755.33 38.87 754.62 L 39.64 755.11 L 40.61 754.72 L 40.77 753.85 C 44.86 754.02 48.93 752.58 52.87 751.58 C 53.30 751.63 54.16 751.71 54.59 751.75 L 54.78 750.90 C 55.55 750.80 57.09 750.62 57.86 750.53 L 58.61 751.06 L 59.60 750.71 L 59.80 749.85 C 64.17 749.96 68.59 748.51 72.84 747.51 C 73.28 747.55 74.15 747.63 74.59 747.67 L 74.77 746.81 C 76.84 747.28 78.92 746.40 80.96 746.10 C 84.90 745.12 89.00 744.78 92.86 743.50 C 93.29 743.54 94.17 743.62 94.60 743.66 L 94.80 742.80 C 96.50 743.26 98.22 742.55 99.90 742.30 C 108.86 740.27 117.94 738.69 126.84 736.50 C 127.28 736.54 128.15 736.61 128.59 736.64 L 128.77 735.78 C 133.54 736.04 138.17 734.06 142.90 733.47 C 221.94 717.61 300.99 701.82 380.02 685.92 C 390.27 683.69 400.70 682.07 410.84 679.49 C 411.28 679.54 412.14 679.64 412.57 679.69 L 412.78 678.85 C 413.54 678.75 415.07 678.55 415.84 678.46 C 416.27 678.52 417.13 678.64 417.57 678.71 L 417.80 677.86 C 418.56 677.76 420.07 677.56 420.82 677.45 L 421.57 677.99 L 422.58 677.66 L 422.79 676.80 C 425.51 677.16 428.31 676.32 430.86 675.45 C 431.30 675.50 432.17 675.60 432.60 675.64 L 432.82 674.79 C 434.14 675.22 435.52 674.71 436.84 674.52 C 462.82 669.05 488.98 664.28 514.89 658.56 L 515.64 659.09 L 516.62 658.73 L 516.81 657.88 C 518.20 658.35 519.66 657.72 521.06 657.56 C 530.63 655.43 540.34 653.90 549.85 651.56 C 550.28 651.59 551.15 651.65 551.59 651.68 L 551.76 650.82 C 554.47 651.18 557.27 650.35 559.84 649.50 C 560.27 649.55 561.14 649.66 561.57 649.71 L 561.78 648.86 C 562.55 648.77 564.09 648.59 564.86 648.50 C 565.29 648.55 566.15 648.64 566.59 648.68 L 566.77 647.84 C 567.54 647.76 569.09 647.60 569.86 647.53 C 570.29 647.56 571.17 647.62 571.60 647.65 L 571.77 646.79 C 574.49 647.17 577.28 646.33 579.85 645.47 C 580.28 645.52 581.15 645.61 581.59 645.65 L 581.80 644.79 C 584.51 645.16 587.29 644.30 589.85 643.46 C 590.29 643.50 591.16 643.59 591.59 643.64 L 591.80 642.78 C 593.14 643.19 594.54 642.69 595.88 642.50 C 617.25 638.10 638.65 633.88 660.03 629.54 C 672.95 626.79 686.03 624.61 698.86 621.51 C 699.29 621.56 700.16 621.65 700.60 621.70 L 700.81 620.84 C 702.47 621.31 704.19 620.58 705.86 620.35 C 710.16 619.28 714.63 618.86 718.85 617.51 C 719.28 617.55 720.15 617.64 720.58 617.68 L 720.77 616.84 C 721.54 616.76 723.07 616.59 723.83 616.51 C 724.27 616.55 725.14 616.62 725.58 616.66 L 725.76 615.80 C 730.15 615.99 734.56 614.49 738.82 613.48 C 739.26 613.52 740.13 613.61 740.57 613.65 L 740.77 612.79 C 743.57 613.22 746.31 612.03 749.07 611.62 C 815.32 598.28 881.59 585.04 947.85 571.76 C 970.84 567.00 993.99 562.81 1016.89 557.70 C 1017.32 557.73 1018.18 557.79 1018.60 557.82 L 1018.78 556.97 L 1019.99 557.25 L 1020.86 556.64 L 1021.65 557.12 L 1022.61 556.70 L 1022.75 555.83 C 1025.75 556.08 1028.50 554.32 1031.23 553.27 C 1036.70 550.82 1042.10 546.41 1042.92 540.12 C 1043.97 446.40 1042.39 352.64 1043.83 258.91 C 1040.89 259.65 1037.86 260.11 1035.11 261.39 M 414.16 285.12 C 412.23 287.07 409.96 288.86 408.96 291.49 C 415.24 290.87 420.65 294.59 426.43 296.38 C 437.27 299.97 448.28 303.07 458.97 307.14 C 481.98 315.60 504.19 326.07 527.10 334.79 C 532.36 336.86 537.70 338.75 542.76 341.29 C 548.58 343.35 554.83 343.86 560.95 344.11 C 579.05 344.25 596.50 338.80 614.09 335.28 C 606.21 331.11 597.87 327.87 589.72 324.26 C 546.36 305.83 501.86 290.32 458.05 273.05 C 452.71 270.81 446.78 270.06 441.06 270.89 C 430.77 272.36 421.56 278.04 414.16 285.12 M 650.99 643.40 C 651.50 644.74 652.02 646.08 652.54 647.45 C 666.09 652.87 680.69 654.59 695.06 656.32 C 704.11 657.30 713.06 658.95 722.08 660.15 C 829.74 675.25 936.83 694.38 1044.83 706.94 C 1042.53 696.77 1039.85 686.69 1037.11 676.64 C 940.90 661.23 844.39 647.75 748.12 632.73 C 735.65 630.06 722.75 630.11 710.15 631.71 C 690.17 634.23 670.83 640.11 650.99 643.40 M 521.84 670.52 C 522.79 671.26 523.85 671.78 525.03 672.06 C 548.32 678.29 572.31 681.14 596.16 684.32 C 615.49 686.84 634.71 690.15 653.98 693.08 C 744.94 707.14 836.14 719.70 926.94 734.78 C 942.52 736.94 958.38 736.20 973.89 733.82 C 993.03 730.75 1011.86 725.74 1030.20 719.51 C 895.53 696.10 759.79 679.52 624.97 657.09 C 589.99 652.34 555.51 662.41 521.84 670.52 M 396.89 695.61 C 402.50 697.54 408.37 698.57 414.15 699.83 C 434.04 703.69 454.14 706.24 474.15 709.33 C 575.80 724.46 677.45 739.62 779.00 755.38 C 794.27 757.53 809.47 760.92 824.97 760.53 C 852.74 760.18 880.07 753.24 905.99 743.69 C 770.25 721.42 633.97 702.67 498.08 681.32 C 463.64 676.95 430.04 687.99 396.89 695.61 M 309.90 711.37 C 297.13 714.48 284.34 717.64 271.78 721.52 C 407.36 743.54 543.46 762.09 679.12 783.58 C 688.31 785.10 697.67 785.53 706.97 785.04 C 735.57 783.54 763.03 774.77 791.02 769.45 C 654.85 747.62 518.26 728.52 382.03 707.05 C 358.05 702.48 333.43 705.91 309.90 711.37 M 216.93 730.56 C 194.27 733.30 172.48 740.39 150.23 745.16 L 150.22 746.47 C 283.69 768.00 417.65 786.34 551.17 807.50 C 580.31 813.93 610.03 807.17 638.49 800.61 C 647.40 798.35 656.53 796.94 665.38 794.50 C 531.37 770.78 396.17 754.57 261.95 732.17 C 247.21 728.77 231.89 728.66 216.93 730.56 M 358.98 869.01 C 343.71 872.21 328.31 874.93 313.12 878.43 L 312.36 877.91 L 311.39 878.27 L 311.20 879.12 C 310.42 879.15 308.88 879.20 308.11 879.23 C 234.72 894.02 161.30 908.71 87.89 923.38 C 74.97 926.10 61.93 928.30 49.09 931.34 L 48.31 930.87 L 47.35 931.30 L 47.20 932.17 C 42.42 932.37 37.62 933.84 33.09 935.39 C 32.65 935.40 31.78 935.42 31.34 935.42 L 31.23 936.29 C 25.18 937.23 19.44 942.08 17.52 948.00 C 14.87 961.16 15.72 974.67 15.53 988.01 C 15.89 1068.88 15.69 1149.76 15.80 1230.64 C 18.83 1229.97 21.95 1229.60 24.87 1228.53 C 25.31 1228.56 26.18 1228.62 26.61 1228.65 L 26.79 1227.79 C 28.88 1228.23 30.96 1227.30 33.00 1226.97 C 37.92 1225.71 43.01 1225.08 47.85 1223.54 C 48.28 1223.58 49.16 1223.64 49.59 1223.67 L 49.78 1222.81 C 53.86 1223.00 57.92 1221.52 61.86 1220.56 C 62.30 1220.59 63.17 1220.65 63.60 1220.68 L 63.78 1219.82 C 67.86 1220.01 71.94 1218.54 75.87 1217.56 L 76.63 1218.07 L 77.61 1217.69 L 77.80 1216.83 C 80.85 1217.22 83.83 1215.89 86.83 1215.43 C 99.14 1212.70 111.63 1210.53 123.83 1207.47 C 124.26 1207.52 125.14 1207.61 125.57 1207.66 L 125.79 1206.80 C 127.88 1207.25 129.96 1206.33 132.01 1206.03 C 138.93 1204.37 146.05 1203.44 152.88 1201.49 L 153.63 1202.02 L 154.62 1201.68 L 154.83 1200.82 C 156.15 1201.25 157.51 1200.73 158.82 1200.55 C 188.13 1194.33 217.64 1188.86 246.88 1182.49 C 247.31 1182.55 248.17 1182.66 248.60 1182.72 L 248.83 1181.87 C 249.58 1181.78 251.10 1181.59 251.86 1181.50 L 252.60 1182.04 L 253.60 1181.70 L 253.81 1180.84 C 258.53 1181.05 263.15 1179.12 267.83 1178.52 C 329.16 1166.15 390.65 1154.40 451.86 1141.56 C 452.30 1141.60 453.16 1141.67 453.60 1141.71 L 453.78 1140.85 C 458.15 1140.98 462.58 1139.57 466.82 1138.52 C 467.26 1138.56 468.13 1138.64 468.57 1138.68 L 468.76 1137.82 C 473.07 1138.10 477.25 1136.25 481.51 1135.70 C 495.29 1132.64 509.28 1130.50 522.88 1126.69 C 556.63 1119.75 590.45 1113.11 624.22 1106.23 C 645.29 1101.22 666.74 1098.02 687.90 1093.37 C 695.43 1091.30 703.13 1089.95 710.82 1088.65 C 736.91 1083.45 763.00 1078.23 789.07 1072.93 C 796.39 1071.29 803.92 1070.43 811.01 1067.88 C 831.89 1064.21 852.71 1060.13 873.49 1055.85 C 920.36 1046.47 967.22 1036.96 1014.07 1027.47 C 1017.46 1026.80 1020.88 1025.92 1023.83 1024.03 C 1030.03 1020.10 1036.32 1016.31 1042.42 1012.21 C 1042.23 1005.46 1042.36 998.71 1042.33 991.96 C 1042.50 982.62 1041.80 973.23 1043.07 963.94 C 1043.41 886.47 1043.10 809.00 1043.36 731.54 C 815.16 777.02 587.10 823.16 358.98 869.01 M 28.87 770.69 C 32.35 771.72 35.98 772.08 39.55 772.69 C 169.51 794.23 300.05 811.96 430.16 832.51 C 454.32 837.86 479.29 834.18 503.05 828.58 C 516.09 825.41 529.13 822.18 542.08 818.68 C 404.32 795.62 265.78 777.62 127.93 755.13 C 94.09 751.08 61.05 761.76 28.87 770.69 M 14.67 782.21 C 16.58 792.08 17.36 802.51 22.53 811.38 C 35.08 816.76 48.77 818.26 62.13 820.40 C 150.09 833.21 237.90 847.02 325.88 859.67 C 340.06 860.33 354.21 858.16 368.11 855.60 C 386.27 851.96 404.25 847.45 422.32 843.40 C 286.51 822.53 150.64 802.04 14.67 782.21 M 484.90 1146.79 C 471.40 1148.93 458.35 1153.13 444.91 1155.55 C 499.50 1178.90 554.75 1200.72 610.78 1220.36 C 612.17 1220.97 613.70 1220.61 615.14 1220.31 C 622.68 1218.45 629.94 1215.65 637.04 1212.52 C 642.66 1209.75 648.75 1207.81 654.04 1204.44 C 609.21 1183.87 562.39 1168.13 516.95 1149.02 C 506.78 1145.06 495.54 1145.12 484.90 1146.79 M 402.90 1163.27 C 390.34 1165.40 378.32 1169.82 365.91 1172.62 C 378.29 1178.75 391.10 1183.97 403.85 1189.25 C 443.92 1205.48 484.86 1219.48 524.69 1236.31 C 535.27 1240.11 545.43 1246.35 556.98 1246.41 C 562.91 1245.21 568.49 1242.70 574.10 1240.49 C 582.48 1236.81 590.87 1233.15 599.11 1229.18 C 543.48 1208.27 488.41 1185.92 432.73 1165.16 C 423.26 1161.50 412.78 1161.60 402.90 1163.27 M 283.08 1188.24 C 292.25 1193.81 302.26 1197.85 312.15 1201.95 C 330.15 1209.06 348.47 1215.34 366.44 1222.54 C 407.21 1238.48 447.74 1255.11 488.97 1269.84 C 498.84 1272.97 509.31 1269.67 518.26 1265.32 C 524.43 1262.14 530.63 1258.94 536.45 1255.15 C 477.28 1228.00 415.24 1207.86 355.35 1182.45 C 344.76 1178.56 333.19 1178.29 322.11 1179.75 C 308.88 1181.46 296.05 1185.26 283.08 1188.24 M 244.16 1195.49 C 229.79 1197.16 216.05 1201.98 201.88 1204.74 C 205.19 1207.13 209.24 1208.13 212.88 1209.92 C 256.81 1228.74 301.39 1246.01 346.04 1263.03 C 384.68 1277.68 423.26 1292.53 461.80 1307.43 C 465.31 1297.08 470.38 1287.38 474.98 1277.51 C 451.29 1268.42 427.73 1259.00 404.02 1249.96 C 361.07 1233.31 318.02 1216.95 275.29 1199.75 C 265.65 1195.15 254.67 1194.12 244.16 1195.49 M 157.95 1212.17 C 144.68 1214.35 131.96 1218.93 118.79 1221.56 C 135.70 1229.97 153.50 1236.45 171.14 1243.15 C 276.56 1282.76 380.40 1326.61 486.70 1363.86 C 482.58 1353.84 480.88 1342.93 475.88 1333.27 C 473.05 1327.68 468.57 1322.66 462.61 1320.40 C 452.54 1316.97 442.69 1312.97 432.72 1309.27 C 350.87 1278.07 269.58 1245.40 187.73 1214.18 C 178.27 1210.52 167.83 1210.57 157.95 1212.17 M 71.38 1229.58 C 60.68 1231.93 50.24 1235.27 39.64 1238.00 C 41.80 1239.80 44.47 1240.77 46.97 1241.99 C 59.05 1247.71 71.47 1252.65 83.95 1257.42 C 223.69 1310.97 362.58 1366.76 502.85 1418.94 C 499.50 1409.84 498.47 1400.08 495.00 1391.03 C 492.80 1385.13 488.92 1379.45 483.00 1376.81 C 357.71 1328.13 232.25 1279.88 107.14 1230.74 C 95.75 1226.29 83.11 1227.05 71.38 1229.58 M 17.76 1246.32 C 17.36 1257.03 16.85 1267.75 16.20 1278.46 C 35.71 1286.66 55.81 1293.41 75.36 1301.53 C 192.97 1347.34 310.59 1393.15 428.31 1438.68 C 448.90 1446.75 469.75 1454.18 490.05 1462.98 C 496.29 1465.55 502.44 1468.47 508.92 1470.38 C 512.35 1469.07 515.49 1467.13 518.78 1465.53 C 518.42 1460.86 517.11 1456.35 516.20 1451.79 C 514.75 1444.18 509.20 1438.13 503.02 1433.86 C 493.30 1427.28 481.87 1424.13 470.99 1420.06 C 378.55 1384.64 286.34 1348.64 194.08 1312.77 C 156.18 1298.02 118.19 1283.50 80.39 1268.50 C 59.78 1260.38 39.04 1252.50 17.76 1246.32 Z" />
<path fill="#3f04e5" opacity="1.00" d=" M 834.05 373.29 C 868.40 367.40 902.16 358.18 936.76 353.78 C 936.46 361.74 936.88 369.80 935.95 377.68 C 930.08 383.88 921.10 385.23 913.00 385.90 C 908.91 385.97 904.85 386.38 900.82 386.99 C 900.84 410.32 901.88 433.63 901.92 456.97 C 901.86 476.01 902.23 495.09 901.36 514.12 C 891.91 517.18 881.88 517.45 872.13 518.97 C 869.57 478.23 869.44 437.38 870.01 396.57 C 857.91 397.45 845.81 398.10 833.69 398.67 C 833.69 390.21 833.80 381.74 834.05 373.29 Z" />
<path fill="#3f04e5" opacity="1.00" d=" M 793.39 379.33 C 802.78 377.72 812.53 377.19 821.89 379.29 C 822.09 386.56 823.22 393.77 823.02 401.06 C 824.59 426.33 823.85 451.68 824.00 476.99 C 823.85 495.28 824.26 513.57 824.39 531.85 C 815.00 532.24 805.66 533.63 796.24 533.06 C 780.51 512.20 770.71 487.49 754.22 467.15 C 750.98 493.17 755.69 519.51 751.43 545.44 C 742.18 546.82 732.65 547.89 723.46 545.49 C 721.74 538.84 722.28 531.76 721.76 524.92 C 720.98 516.32 720.99 507.67 721.00 499.04 C 720.10 463.73 721.00 428.41 720.23 393.10 C 729.13 392.16 738.07 391.57 747.02 391.48 C 748.67 391.23 749.38 392.97 750.29 393.99 C 762.47 410.86 771.09 429.95 782.80 447.13 C 785.27 450.58 787.52 454.26 790.70 457.15 C 793.44 431.26 789.07 405.10 793.39 379.33 Z" />
<path fill="#3f04e5" opacity="1.00" d=" M 687.82 403.73 C 690.49 403.37 693.23 402.50 695.92 402.93 C 703.63 409.78 702.84 420.87 704.06 430.20 C 684.90 432.71 665.46 434.79 647.18 441.44 C 645.45 452.02 645.70 462.79 644.96 473.47 C 661.79 469.61 678.89 466.99 696.13 466.00 C 697.00 474.59 697.01 483.22 697.00 491.85 C 683.13 495.05 669.14 497.81 655.03 499.80 C 652.16 500.08 649.30 500.55 646.49 501.20 C 646.35 513.54 645.79 525.88 646.00 538.22 C 665.63 534.23 685.60 531.90 705.61 531.10 C 705.55 539.46 705.27 547.81 705.17 556.17 C 675.30 561.63 645.76 571.61 615.03 569.86 C 614.34 546.91 613.91 523.94 614.00 500.98 C 614.16 473.45 613.08 445.92 613.29 418.40 C 623.28 417.04 633.07 414.59 642.98 412.87 C 643.47 412.68 644.45 412.30 644.93 412.11 C 649.00 411.63 652.92 410.34 656.99 409.88 C 657.48 409.69 658.46 409.32 658.95 409.13 C 668.59 407.43 678.13 405.20 687.82 403.73 Z" />
<path fill="#3f04e5" opacity="1.00" d=" M 495.15 438.93 C 529.44 432.35 563.42 424.06 597.98 418.90 C 598.04 426.85 597.97 434.80 597.97 442.76 C 592.71 447.96 585.32 450.22 578.11 450.87 C 572.73 451.18 567.39 452.00 562.00 452.09 C 563.27 475.36 562.76 498.68 563.31 521.97 C 563.65 541.19 563.24 560.41 562.89 579.62 C 553.27 581.98 543.39 583.46 533.51 583.91 C 532.98 576.97 533.17 569.99 532.54 563.06 C 531.76 553.71 532.25 544.32 531.59 534.97 C 530.84 510.62 530.87 486.24 531.58 461.89 C 519.43 462.60 507.30 463.67 495.13 463.89 C 494.98 455.57 495.23 447.25 495.15 438.93 Z" />
<path fill="#3f04e5" opacity="1.00" d=" M 455.18 450.32 C 464.50 449.35 474.20 447.91 483.31 450.73 C 484.30 457.77 483.86 464.93 484.72 471.99 C 485.04 489.31 485.82 506.63 485.79 523.97 C 485.90 550.29 485.72 576.61 486.00 602.92 C 476.74 604.11 467.37 604.42 458.04 604.54 C 442.07 583.96 432.65 559.06 415.98 538.99 C 414.55 545.58 414.97 552.36 414.76 559.05 C 414.46 578.29 416.34 597.75 412.78 616.78 C 403.38 618.06 393.68 618.97 384.36 616.64 C 380.83 565.88 382.48 514.96 381.96 464.12 C 391.31 463.66 400.61 462.54 410.00 462.95 C 425.80 483.61 435.22 508.45 451.88 528.51 C 453.71 517.43 452.98 506.17 453.06 494.99 C 453.20 480.10 452.07 464.98 455.18 450.32 Z" />
<path fill="#3f04e5" opacity="1.00" d=" M 286.88 484.86 C 301.86 476.89 319.57 477.44 335.88 479.93 C 339.62 480.03 342.68 482.35 345.57 484.47 C 352.36 489.67 356.72 497.38 359.48 505.34 C 359.50 505.41 359.55 505.53 359.57 505.59 C 364.93 522.52 364.88 540.49 364.98 558.07 C 365.17 570.52 364.10 583.05 360.93 595.11 C 360.73 595.60 360.33 596.57 360.13 597.06 C 356.46 609.43 348.14 620.16 337.84 627.79 C 321.76 638.50 301.04 638.01 282.84 634.16 C 275.23 631.03 269.25 624.63 265.47 617.42 C 261.06 608.93 259.43 599.32 258.72 589.87 C 257.28 577.96 258.75 565.92 257.33 554.01 C 256.89 539.23 258.57 524.06 264.53 510.40 C 269.20 499.95 276.74 490.42 286.88 484.86 M 296.82 515.92 C 293.21 522.58 291.58 530.13 290.38 537.55 C 287.59 558.12 291.31 578.75 294.40 599.06 C 295.00 602.25 294.93 605.61 296.21 608.66 C 303.89 610.04 312.33 609.63 319.08 605.34 C 325.14 601.76 329.08 594.98 329.31 587.96 C 331.95 560.26 331.18 532.05 325.16 504.81 C 315.15 506.00 303.04 506.74 296.82 515.92 Z" />
<path fill="#3f04e5" opacity="1.00" d=" M 220.00 499.16 C 230.19 497.72 240.42 496.58 250.71 496.13 C 246.16 523.46 226.45 544.54 216.86 569.92 C 215.87 572.77 214.18 575.84 215.41 578.91 C 217.20 583.87 221.20 587.56 223.82 592.07 C 236.57 609.65 251.52 626.22 259.36 646.79 C 248.02 649.59 236.63 652.33 225.12 654.36 C 212.90 636.32 200.48 618.32 186.01 601.98 C 185.27 601.49 184.87 599.82 183.77 600.40 C 181.74 621.64 184.95 643.14 181.46 664.28 C 172.04 665.58 162.32 666.63 153.00 664.14 C 151.86 656.46 152.20 648.70 151.43 641.00 C 150.72 630.97 151.25 620.92 150.71 610.90 C 150.00 582.92 150.78 554.93 150.34 526.95 C 150.31 521.82 150.03 516.69 150.27 511.56 C 160.47 511.08 170.69 510.94 180.90 511.08 C 181.37 527.58 182.93 544.01 184.11 560.47 C 199.33 542.04 204.47 517.41 220.00 499.16 Z" />
<path fill="#3f04e5" opacity="1.00" d=" M 788.92 855.12 C 814.40 850.26 839.65 843.98 865.42 840.80 C 865.29 848.77 864.95 856.73 865.00 864.71 C 858.37 871.07 848.86 872.59 840.04 872.99 C 836.49 873.03 832.98 873.55 829.48 874.01 C 829.92 887.35 830.01 900.69 830.04 914.04 C 830.91 943.06 831.05 972.10 830.17 1001.12 C 820.74 1004.12 810.79 1004.41 801.10 1006.02 C 800.10 998.52 800.08 990.96 799.84 983.42 C 798.65 970.97 799.31 958.46 798.58 945.99 C 798.14 925.19 798.10 904.36 798.99 883.57 C 786.78 884.46 774.56 885.09 762.33 885.60 C 762.23 877.24 762.45 868.88 762.48 860.52 C 770.65 859.02 778.76 857.20 786.94 855.83 C 787.44 855.65 788.43 855.30 788.92 855.12 Z" />
<path fill="#3f04e5" opacity="1.00" d=" M 668.01 879.93 C 681.60 877.36 695.14 874.35 708.86 872.47 C 722.33 870.97 737.37 871.67 748.28 880.73 C 752.80 885.80 755.21 892.48 756.50 899.08 C 758.76 913.78 755.22 928.55 750.52 942.42 C 750.51 942.46 750.48 942.56 750.46 942.61 C 748.83 946.62 752.60 950.07 753.06 953.99 C 753.28 954.46 753.73 955.41 753.95 955.89 C 760.09 976.35 761.35 997.79 765.67 1018.63 C 753.20 1019.74 740.69 1020.44 728.17 1019.82 C 726.89 1002.39 728.61 984.21 722.26 967.59 C 712.84 965.90 703.32 968.34 693.84 968.02 C 693.56 979.69 694.08 991.36 694.00 1003.03 C 694.05 1012.94 694.06 1023.00 691.81 1032.70 C 682.41 1033.78 672.85 1034.79 663.53 1032.46 C 659.98 984.06 661.44 935.47 660.97 886.97 C 660.24 882.81 664.55 880.49 668.01 879.93 M 693.06 902.97 C 693.00 915.30 693.53 927.63 693.54 939.97 C 702.67 938.77 711.69 936.83 720.83 935.71 C 721.91 924.31 722.82 912.90 723.19 901.46 C 713.14 901.96 703.09 902.10 693.06 902.97 Z" />
<path fill="#3f04e5" opacity="1.00" d=" M 554.07 905.32 C 581.63 901.12 608.53 893.32 636.17 889.57 C 644.13 896.45 643.62 907.78 644.54 917.33 C 628.92 919.19 613.27 921.18 598.01 925.11 C 597.53 925.31 596.56 925.72 596.07 925.93 C 593.43 926.70 590.72 927.27 588.21 928.43 C 587.20 929.25 587.38 930.76 587.13 931.93 C 586.52 941.42 585.75 950.89 585.85 960.41 C 602.63 956.61 619.68 953.91 636.87 953.07 C 636.99 961.64 637.86 970.18 637.94 978.75 C 621.15 982.77 604.11 985.72 587.00 988.00 C 587.03 1000.42 586.88 1012.84 586.64 1025.26 C 606.20 1021.27 626.07 1019.07 645.99 1018.01 C 646.02 1026.37 645.97 1034.73 645.97 1043.09 C 616.00 1048.59 586.31 1058.78 555.48 1056.74 C 554.99 1042.16 555.01 1027.58 554.98 1012.99 C 554.30 977.11 553.90 941.21 554.07 905.32 Z" />
<path fill="#3f04e5" opacity="1.00" d=" M 435.20 929.14 C 458.48 925.82 481.29 917.08 505.12 919.24 C 513.93 921.18 521.92 926.69 526.69 934.37 C 533.41 944.90 534.91 957.94 533.65 970.14 C 532.16 981.23 528.81 992.63 521.19 1001.12 C 514.37 1008.41 504.92 1012.40 495.61 1015.48 C 495.56 1015.49 495.46 1015.53 495.41 1015.54 C 491.27 1016.73 487.19 1018.16 482.99 1019.11 C 482.51 1019.32 481.53 1019.72 481.05 1019.93 C 476.66 1021.03 472.34 1022.38 468.20 1024.21 C 467.22 1042.70 469.41 1061.35 466.70 1079.73 C 457.33 1081.61 447.43 1082.04 438.07 1079.89 C 435.84 1058.68 436.09 1037.32 435.61 1016.01 C 435.35 997.01 435.79 978.01 435.48 959.01 C 435.56 949.05 434.90 939.10 435.20 929.14 M 467.24 949.72 C 467.40 964.31 467.42 978.91 466.99 993.50 C 475.63 991.40 484.48 989.51 492.38 985.27 C 496.09 983.42 498.69 979.84 499.90 975.95 C 502.84 967.00 498.98 957.85 497.83 948.94 C 487.62 948.77 477.44 949.60 467.24 949.72 Z" />
<path fill="#3f04e5" opacity="1.00" d=" M 378.34 944.28 C 382.00 939.54 388.25 937.81 393.96 937.15 C 401.19 936.67 408.47 937.44 415.70 936.62 C 407.76 964.78 392.02 989.97 383.22 1017.80 C 392.83 1042.08 410.48 1061.96 422.18 1085.13 L 421.04 1085.06 C 420.57 1085.28 419.61 1085.71 419.13 1085.92 C 408.10 1089.34 396.92 1092.30 385.62 1094.73 C 377.58 1080.03 370.81 1064.68 363.41 1049.67 C 362.35 1054.16 360.95 1058.57 359.90 1063.07 C 359.69 1063.55 359.27 1064.51 359.06 1064.99 C 358.78 1066.86 358.10 1068.64 357.57 1070.46 C 357.55 1070.51 357.52 1070.62 357.50 1070.68 C 354.07 1081.02 350.56 1091.53 344.87 1100.88 C 340.44 1104.45 334.44 1105.05 328.96 1105.42 C 322.08 1105.74 315.19 1105.26 308.32 1105.95 C 317.05 1077.75 332.75 1052.23 341.34 1023.99 C 330.77 1000.94 315.14 980.51 304.69 957.40 C 316.26 954.52 327.75 951.31 339.29 948.32 C 346.71 961.52 353.52 975.06 361.18 988.13 C 366.87 973.51 370.90 958.17 378.34 944.28 Z" />
<path fill="#3f04e5" opacity="1.00" d=" M 209.40 970.88 C 237.01 966.22 264.09 958.84 291.82 954.90 C 299.51 961.94 299.51 973.13 299.97 982.76 C 280.77 984.91 261.26 987.15 243.07 994.05 C 241.78 1004.64 241.98 1015.31 241.15 1025.94 C 257.94 1021.79 275.13 1019.37 292.39 1018.40 C 293.32 1026.97 292.71 1035.61 293.43 1044.20 C 276.70 1047.81 259.91 1051.40 242.86 1053.12 C 242.65 1065.63 242.18 1078.14 241.98 1090.66 C 261.66 1086.50 281.69 1084.45 301.74 1083.33 C 301.88 1091.73 301.58 1100.14 301.46 1108.55 C 271.48 1113.78 241.86 1124.28 211.04 1121.92 C 211.17 1107.29 210.39 1092.68 210.29 1078.06 C 210.04 1059.06 209.98 1040.06 210.00 1021.06 C 210.06 1004.33 209.41 987.61 209.40 970.88 Z" />
</g>
<g id="#c2edecff">
<path fill="#c2edec" opacity="1.00" d=" M 538.22 17.06 C 665.19 62.66 790.22 113.43 916.13 161.84 C 948.86 174.61 981.82 186.77 1014.58 199.43 C 1023.74 203.08 1033.20 207.54 1039.44 215.45 C 1045.29 224.30 1041.55 235.29 1041.51 245.09 C 1012.20 234.64 983.23 223.22 954.14 212.16 C 870.66 180.15 787.52 147.27 704.16 114.95 C 658.90 97.33 613.48 80.13 568.10 62.83 C 561.59 60.15 554.54 57.68 549.50 52.58 C 543.97 41.39 541.56 29.01 538.22 17.06 Z" />
<path fill="#c2edec" opacity="1.00" d=" M 556.40 71.63 C 636.17 100.68 715.07 132.03 794.16 162.87 C 832.28 177.84 870.68 192.11 908.74 207.23 C 943.72 220.76 979.01 233.54 1013.38 248.57 C 1015.98 249.64 1018.52 250.83 1021.01 252.14 C 1002.12 257.40 982.83 263.49 962.98 262.03 C 946.22 258.99 930.97 251.02 915.18 244.99 C 799.45 200.41 684.08 154.89 568.09 110.97 C 564.17 97.87 559.87 84.87 556.40 71.63 Z" />
<path fill="#c2edec" opacity="1.00" d=" M 572.60 125.89 C 695.29 171.92 817.41 219.48 939.29 267.62 C 935.52 269.46 931.36 270.21 927.43 271.57 C 912.41 276.20 896.70 280.87 880.82 278.70 C 872.95 277.77 865.83 274.09 858.49 271.38 C 768.18 235.91 677.58 201.14 587.23 165.76 C 585.85 165.44 585.67 163.86 585.20 162.77 C 581.19 150.42 576.81 138.18 572.60 125.89 Z" />
<path fill="#c2edec" opacity="1.00" d=" M 594.52 181.26 C 676.94 214.86 761.11 244.05 842.96 279.06 C 847.72 281.24 852.68 283.00 857.28 285.52 C 842.11 288.62 827.45 294.32 811.91 295.42 C 803.84 296.00 795.55 295.12 788.09 291.86 C 719.11 264.78 649.68 238.83 580.92 211.21 C 585.91 206.74 590.93 202.30 595.99 197.91 C 595.76 192.34 594.98 186.81 594.52 181.26 Z" />
<path fill="#c2edec" opacity="1.00" d=" M 521.57 236.79 C 533.39 229.41 545.47 221.85 559.00 218.08 C 567.42 218.15 575.33 221.78 583.09 224.70 C 624.21 241.23 665.63 257.00 706.99 272.91 C 731.13 282.30 755.32 291.60 779.18 301.68 C 761.71 304.64 744.85 311.29 726.99 311.78 C 719.54 312.01 712.01 310.85 705.10 307.98 C 643.96 284.16 582.81 260.36 521.57 236.79 Z" />
<path fill="#c2edec" opacity="1.00" d=" M 497.38 245.54 C 502.87 244.29 508.72 244.19 514.11 245.97 C 554.52 262.51 595.59 277.40 636.15 293.57 C 655.55 301.40 675.09 309.01 694.05 317.83 C 678.51 321.84 663.12 327.22 646.98 328.07 C 638.54 328.46 629.99 327.14 622.20 323.81 C 569.13 302.98 515.64 283.14 462.98 261.28 C 474.31 255.79 484.97 248.47 497.38 245.54 Z" />
<path fill="#c2edec" opacity="1.00" d=" M 1033.39 261.26 C 1033.82 261.29 1034.68 261.36 1035.11 261.39 C 1034.63 261.57 1033.68 261.93 1033.20 262.11 L 1033.39 261.26 Z" />
<path fill="#c2edec" opacity="1.00" d=" M 1029.41 262.31 C 1029.84 262.35 1030.71 262.44 1031.14 262.48 C 1030.66 262.65 1029.70 262.99 1029.23 263.16 L 1029.41 262.31 Z" />
<path fill="#c2edec" opacity="1.00" d=" M 1025.42 263.32 C 1025.85 263.37 1026.72 263.47 1027.15 263.52 C 1026.67 263.68 1025.70 264.00 1025.21 264.17 L 1025.42 263.32 Z" />
<path fill="#c2edec" opacity="1.00" d=" M 1021.40 264.38 L 1022.38 264.00 L 1023.16 264.50 C 1022.68 264.68 1021.71 265.05 1021.22 265.24 L 1021.40 264.38 Z" />
<path fill="#c2edec" opacity="1.00" d=" M 414.16 285.12 C 421.56 278.04 430.77 272.36 441.06 270.89 C 446.78 270.06 452.71 270.81 458.05 273.05 C 501.86 290.32 546.36 305.83 589.72 324.26 C 597.87 327.87 606.21 331.11 614.09 335.28 C 596.50 338.80 579.05 344.25 560.95 344.11 C 554.83 343.86 548.58 343.35 542.76 341.29 C 537.70 338.75 532.36 336.86 527.10 334.79 C 504.19 326.07 481.98 315.60 458.97 307.14 C 448.28 303.07 437.27 299.97 426.43 296.38 C 420.65 294.59 415.24 290.87 408.96 291.49 C 409.96 288.86 412.23 287.07 414.16 285.12 Z" />
<path fill="#c2edec" opacity="1.00" d=" M 991.40 271.27 L 992.38 270.90 L 993.14 271.42 C 992.66 271.60 991.69 271.96 991.21 272.14 L 991.40 271.27 Z" />
<path fill="#c2edec" opacity="1.00" d=" M 870.40 295.33 C 870.84 295.36 871.71 295.44 872.15 295.48 C 871.66 295.65 870.69 296.01 870.21 296.19 L 870.40 295.33 Z" />
<path fill="#c2edec" opacity="1.00" d=" M 637.40 342.33 C 637.83 342.38 638.69 342.48 639.12 342.53 C 638.64 342.69 637.67 343.01 637.19 343.17 L 637.40 342.33 Z" />
<path fill="#c2edec" opacity="1.00" d=" M 632.40 343.35 C 632.84 343.39 633.72 343.47 634.15 343.52 C 633.67 343.69 632.69 344.03 632.20 344.20 L 632.40 343.35 Z" />
<path fill="#c2edec" opacity="1.00" d=" M 1054.10 354.67 C 1054.87 360.43 1054.44 366.23 1054.57 372.02 C 1054.36 383.81 1055.22 395.62 1054.42 407.38 C 1054.08 389.82 1053.86 372.24 1054.10 354.67 Z" />
<path fill="#c2edec" opacity="1.00" d=" M 448.40 380.34 C 448.83 380.39 449.70 380.49 450.14 380.53 C 449.65 380.70 448.67 381.03 448.18 381.20 L 448.40 380.34 Z" />
<path fill="#c2edec" opacity="1.00" d=" M 657.14 408.98 L 658.15 408.58 L 658.95 409.13 C 658.46 409.32 657.48 409.69 656.99 409.88 L 657.14 408.98 Z" />
<path fill="#c2edec" opacity="1.00" d=" M 643.12 411.97 L 644.13 411.56 L 644.93 412.11 C 644.45 412.30 643.47 412.68 642.98 412.87 L 643.12 411.97 Z" />
<path fill="#c2edec" opacity="1.00" d=" M 50.41 460.30 C 50.84 460.35 51.70 460.46 52.13 460.51 C 51.65 460.67 50.68 460.98 50.20 461.14 L 50.41 460.30 Z" />
<path fill="#c2edec" opacity="1.00" d=" M 45.44 461.34 C 45.88 461.39 46.74 461.49 47.17 461.55 C 46.69 461.71 45.71 462.02 45.23 462.18 L 45.44 461.34 Z" />
<path fill="#c2edec" opacity="1.00" d=" M 41.41 462.30 C 41.84 462.35 42.71 462.44 43.14 462.49 C 42.66 462.65 41.69 462.98 41.21 463.15 L 41.41 462.30 Z" />
<path fill="#c2edec" opacity="1.00" d=" M 37.39 463.43 C 37.82 463.45 38.69 463.50 39.13 463.52 C 38.65 463.71 37.69 464.10 37.21 464.29 L 37.39 463.43 Z" />
<path fill="#c2edec" opacity="1.00" d=" M 34.38 464.33 C 34.78 464.25 35.59 464.08 36.00 464.00 C 35.60 464.30 34.80 464.88 34.40 465.18 L 34.38 464.33 Z" />
<path fill="#c2edec" opacity="1.00" d=" M 17.18 478.32 L 18.06 478.22 C 17.84 478.68 17.39 479.60 17.17 480.07 L 16.72 479.26 L 17.18 478.32 Z" />
<path fill="#c2edec" opacity="1.00" d=" M 359.48 505.34 C 359.50 505.41 359.55 505.53 359.57 505.59 C 359.55 505.53 359.50 505.41 359.48 505.34 Z" />
<path fill="#c2edec" opacity="1.00" d=" M 1020.86 556.64 C 1021.33 556.44 1022.28 556.03 1022.75 555.83 L 1022.61 556.70 L 1021.65 557.12 L 1020.86 556.64 Z" />
<path fill="#c2edec" opacity="1.00" d=" M 1016.89 557.70 C 1017.36 557.52 1018.30 557.15 1018.78 556.97 L 1018.60 557.82 C 1018.18 557.79 1017.32 557.73 1016.89 557.70 Z" />
<path fill="#c2edec" opacity="1.00" d=" M 360.13 597.06 C 360.33 596.57 360.73 595.60 360.93 595.11 L 361.46 595.91 L 361.03 596.92 L 360.13 597.06 Z" />
<path fill="#c2edec" opacity="1.00" d=" M 738.82 613.48 C 739.31 613.31 740.28 612.96 740.77 612.79 L 740.57 613.65 C 740.13 613.61 739.26 613.52 738.82 613.48 Z" />
<path fill="#c2edec" opacity="1.00" d=" M 723.83 616.51 C 724.31 616.33 725.28 615.98 725.76 615.80 L 725.58 616.66 C 725.14 616.62 724.27 616.55 723.83 616.51 Z" />
<path fill="#c2edec" opacity="1.00" d=" M 718.85 617.51 C 719.33 617.34 720.29 617.00 720.77 616.84 L 720.58 617.68 C 720.15 617.64 719.28 617.55 718.85 617.51 Z" />
<path fill="#c2edec" opacity="1.00" d=" M 698.86 621.51 C 699.35 621.35 700.32 621.01 700.81 620.84 L 700.60 621.70 C 700.16 621.65 699.29 621.56 698.86 621.51 Z" />
<path fill="#c2edec" opacity="1.00" d=" M 650.99 643.40 C 670.83 640.11 690.17 634.23 710.15 631.71 C 722.75 630.11 735.65 630.06 748.12 632.73 C 844.39 647.75 940.90 661.23 1037.11 676.64 C 1039.85 686.69 1042.53 696.77 1044.83 706.94 C 936.83 694.38 829.74 675.25 722.08 660.15 C 713.06 658.95 704.11 657.30 695.06 656.32 C 680.69 654.59 666.09 652.87 652.54 647.45 C 652.02 646.08 651.50 644.74 650.99 643.40 Z" />
<path fill="#c2edec" opacity="1.00" d=" M 589.85 643.46 C 590.34 643.29 591.32 642.95 591.80 642.78 L 591.59 643.64 C 591.16 643.59 590.29 643.50 589.85 643.46 Z" />
<path fill="#c2edec" opacity="1.00" d=" M 579.85 645.47 C 580.33 645.30 581.31 644.96 581.80 644.79 L 581.59 645.65 C 581.15 645.61 580.28 645.52 579.85 645.47 Z" />
<path fill="#c2edec" opacity="1.00" d=" M 569.86 647.53 C 570.33 647.34 571.29 646.97 571.77 646.79 L 571.60 647.65 C 571.17 647.62 570.29 647.56 569.86 647.53 Z" />
<path fill="#c2edec" opacity="1.00" d=" M 564.86 648.50 C 565.34 648.33 566.30 648.00 566.77 647.84 L 566.59 648.68 C 566.15 648.64 565.29 648.55 564.86 648.50 Z" />
<path fill="#c2edec" opacity="1.00" d=" M 559.84 649.50 C 560.33 649.34 561.30 649.02 561.78 648.86 L 561.57 649.71 C 561.14 649.66 560.27 649.55 559.84 649.50 Z" />
<path fill="#c2edec" opacity="1.00" d=" M 549.85 651.56 C 550.32 651.37 551.28 651.01 551.76 650.82 L 551.59 651.68 C 551.15 651.65 550.28 651.59 549.85 651.56 Z" />
<path fill="#c2edec" opacity="1.00" d=" M 521.84 670.52 C 555.51 662.41 589.99 652.34 624.97 657.09 C 759.79 679.52 895.53 696.10 1030.20 719.51 C 1011.86 725.74 993.03 730.75 973.89 733.82 C 958.38 736.20 942.52 736.94 926.94 734.78 C 836.14 719.70 744.94 707.14 653.98 693.08 C 634.71 690.15 615.49 686.84 596.16 684.32 C 572.31 681.14 548.32 678.29 525.03 672.06 C 523.85 671.78 522.79 671.26 521.84 670.52 Z" />
<path fill="#c2edec" opacity="1.00" d=" M 514.89 658.56 C 515.37 658.39 516.33 658.05 516.81 657.88 L 516.62 658.73 L 515.64 659.09 L 514.89 658.56 Z" />
<path fill="#c2edec" opacity="1.00" d=" M 430.86 675.45 C 431.35 675.28 432.33 674.95 432.82 674.79 L 432.60 675.64 C 432.17 675.60 431.30 675.50 430.86 675.45 Z" />
<path fill="#c2edec" opacity="1.00" d=" M 420.82 677.45 C 421.32 677.29 422.30 676.96 422.79 676.80 L 422.58 677.66 L 421.57 677.99 L 420.82 677.45 Z" />
<path fill="#c2edec" opacity="1.00" d=" M 415.84 678.46 C 416.33 678.31 417.31 678.01 417.80 677.86 L 417.57 678.71 C 417.13 678.64 416.27 678.52 415.84 678.46 Z" />
<path fill="#c2edec" opacity="1.00" d=" M 410.84 679.49 C 411.33 679.33 412.30 679.01 412.78 678.85 L 412.57 679.69 C 412.14 679.64 411.28 679.54 410.84 679.49 Z" />
<path fill="#c2edec" opacity="1.00" d=" M 396.89 695.61 C 430.04 687.99 463.64 676.95 498.08 681.32 C 633.97 702.67 770.25 721.42 905.99 743.69 C 880.07 753.24 852.74 760.18 824.97 760.53 C 809.47 760.92 794.27 757.53 779.00 755.38 C 677.45 739.62 575.80 724.46 474.15 709.33 C 454.14 706.24 434.04 703.69 414.15 699.83 C 408.37 698.57 402.50 697.54 396.89 695.61 Z" />
<path fill="#c2edec" opacity="1.00" d=" M 309.90 711.37 C 333.43 705.91 358.05 702.48 382.03 707.05 C 518.26 728.52 654.85 747.62 791.02 769.45 C 763.03 774.77 735.57 783.54 706.97 785.04 C 697.67 785.53 688.31 785.10 679.12 783.58 C 543.46 762.09 407.36 743.54 271.78 721.52 C 284.34 717.64 297.13 714.48 309.90 711.37 Z" />
<path fill="#c2edec" opacity="1.00" d=" M 216.93 730.56 C 231.89 728.66 247.21 728.77 261.95 732.17 C 396.17 754.57 531.37 770.78 665.38 794.50 C 656.53 796.94 647.40 798.35 638.49 800.61 C 610.03 807.17 580.31 813.93 551.17 807.50 C 417.65 786.34 283.69 768.00 150.22 746.47 L 150.23 745.16 C 172.48 740.39 194.27 733.30 216.93 730.56 Z" />
<path fill="#c2edec" opacity="1.00" d=" M 126.84 736.50 C 127.32 736.32 128.29 735.96 128.77 735.78 L 128.59 736.64 C 128.15 736.61 127.28 736.54 126.84 736.50 Z" />
<path fill="#c2edec" opacity="1.00" d=" M 92.86 743.50 C 93.34 743.32 94.32 742.97 94.80 742.80 L 94.60 743.66 C 94.17 743.62 93.29 743.54 92.86 743.50 Z" />
<path fill="#c2edec" opacity="1.00" d=" M 72.84 747.51 C 73.32 747.34 74.29 746.98 74.77 746.81 L 74.59 747.67 C 74.15 747.63 73.28 747.55 72.84 747.51 Z" />
<path fill="#c2edec" opacity="1.00" d=" M 57.86 750.53 C 58.35 750.36 59.32 750.02 59.80 749.85 L 59.60 750.71 L 58.61 751.06 L 57.86 750.53 Z" />
<path fill="#c2edec" opacity="1.00" d=" M 52.87 751.58 C 53.35 751.41 54.30 751.07 54.78 750.90 L 54.59 751.75 C 54.16 751.71 53.30 751.63 52.87 751.58 Z" />
<path fill="#c2edec" opacity="1.00" d=" M 38.87 754.62 C 39.34 754.43 40.29 754.04 40.77 753.85 L 40.61 754.72 L 39.64 755.11 L 38.87 754.62 Z" />
<path fill="#c2edec" opacity="1.00" d=" M 28.87 770.69 C 61.05 761.76 94.09 751.08 127.93 755.13 C 265.78 777.62 404.32 795.62 542.08 818.68 C 529.13 822.18 516.09 825.41 503.05 828.58 C 479.29 834.18 454.32 837.86 430.16 832.51 C 300.05 811.96 169.51 794.23 39.55 772.69 C 35.98 772.08 32.35 771.72 28.87 770.69 Z" />
<path fill="#c2edec" opacity="1.00" d=" M 29.87 756.62 C 30.35 756.45 31.32 756.10 31.80 755.92 L 31.61 756.79 L 30.62 757.15 L 29.87 756.62 Z" />
<path fill="#c2edec" opacity="1.00" d=" M 25.89 757.50 C 26.37 757.35 27.34 757.03 27.82 756.87 L 27.61 757.71 C 27.18 757.66 26.32 757.56 25.89 757.50 Z" />
<path fill="#c2edec" opacity="1.00" d=" M 21.85 758.51 C 22.33 758.34 23.29 758.02 23.77 757.85 L 23.58 758.70 C 23.14 758.65 22.28 758.56 21.85 758.51 Z" />
<path fill="#c2edec" opacity="1.00" d=" M 17.86 759.46 C 18.34 759.30 19.31 758.99 19.79 758.83 L 19.60 759.68 L 18.62 760.01 L 17.86 759.46 Z" />
<path fill="#c2edec" opacity="1.00" d=" M 14.67 782.21 C 150.64 802.04 286.51 822.53 422.32 843.40 C 404.25 847.45 386.27 851.96 368.11 855.60 C 354.21 858.16 340.06 860.33 325.88 859.67 C 237.90 847.02 150.09 833.21 62.13 820.40 C 48.77 818.26 35.08 816.76 22.53 811.38 C 17.36 802.51 16.58 792.08 14.67 782.21 Z" />
<path fill="#c2edec" opacity="1.00" d=" M 787.11 854.94 L 788.13 854.56 L 788.92 855.12 C 788.43 855.30 787.44 855.65 786.94 855.83 L 787.11 854.94 Z" />
<path fill="#c2edec" opacity="1.00" d=" M 311.39 878.27 L 312.36 877.91 L 313.12 878.43 C 312.64 878.60 311.68 878.95 311.20 879.12 L 311.39 878.27 Z" />
<path fill="#c2edec" opacity="1.00" d=" M 596.07 925.93 C 596.56 925.72 597.53 925.31 598.01 925.11 L 597.90 926.01 L 596.90 926.45 L 596.07 925.93 Z" />
<path fill="#c2edec" opacity="1.00" d=" M 47.35 931.30 L 48.31 930.87 L 49.09 931.34 C 48.62 931.55 47.68 931.96 47.20 932.17 L 47.35 931.30 Z" />
<path fill="#c2edec" opacity="1.00" d=" M 31.34 935.42 C 31.78 935.42 32.65 935.40 33.09 935.39 C 32.62 935.62 31.69 936.07 31.23 936.29 L 31.34 935.42 Z" />
<path fill="#c2edec" opacity="1.00" d=" M 750.46 942.61 C 750.48 942.56 750.51 942.46 750.52 942.42 C 750.51 942.46 750.48 942.56 750.46 942.61 Z" />
<path fill="#c2edec" opacity="1.00" d=" M 753.06 953.99 L 753.96 954.07 L 754.43 955.05 L 753.95 955.89 C 753.73 955.41 753.28 954.46 753.06 953.99 Z" />
<path fill="#c2edec" opacity="1.00" d=" M 495.41 1015.54 C 495.46 1015.53 495.56 1015.49 495.61 1015.48 C 495.56 1015.49 495.46 1015.53 495.41 1015.54 Z" />
<path fill="#c2edec" opacity="1.00" d=" M 481.05 1019.93 C 481.53 1019.72 482.51 1019.32 482.99 1019.11 L 482.87 1020.02 L 481.87 1020.45 L 481.05 1019.93 Z" />
<path fill="#c2edec" opacity="1.00" d=" M 359.06 1064.99 C 359.27 1064.51 359.69 1063.55 359.90 1063.07 L 360.41 1063.89 L 359.97 1064.89 L 359.06 1064.99 Z" />
<path fill="#c2edec" opacity="1.00" d=" M 357.50 1070.68 C 357.52 1070.62 357.55 1070.51 357.57 1070.46 C 357.55 1070.51 357.52 1070.62 357.50 1070.68 Z" />
<path fill="#c2edec" opacity="1.00" d=" M 419.13 1085.92 C 419.61 1085.71 420.57 1085.28 421.04 1085.06 L 420.92 1085.96 L 419.94 1086.41 L 419.13 1085.92 Z" />
<path fill="#c2edec" opacity="1.00" d=" M 466.82 1138.52 C 467.31 1138.34 468.28 1137.99 468.76 1137.82 L 468.57 1138.68 C 468.13 1138.64 467.26 1138.56 466.82 1138.52 Z" />
<path fill="#c2edec" opacity="1.00" d=" M 451.86 1141.56 C 452.34 1141.38 453.30 1141.03 453.78 1140.85 L 453.60 1141.71 C 453.16 1141.67 452.30 1141.60 451.86 1141.56 Z" />
<path fill="#c2edec" opacity="1.00" d=" M 484.90 1146.79 C 495.54 1145.12 506.78 1145.06 516.95 1149.02 C 562.39 1168.13 609.21 1183.87 654.04 1204.44 C 648.75 1207.81 642.66 1209.75 637.04 1212.52 C 629.94 1215.65 622.68 1218.45 615.14 1220.31 C 613.70 1220.61 612.17 1220.97 610.78 1220.36 C 554.75 1200.72 499.50 1178.90 444.91 1155.55 C 458.35 1153.13 471.40 1148.93 484.90 1146.79 Z" />
<path fill="#c2edec" opacity="1.00" d=" M 402.90 1163.27 C 412.78 1161.60 423.26 1161.50 432.73 1165.16 C 488.41 1185.92 543.48 1208.27 599.11 1229.18 C 590.87 1233.15 582.48 1236.81 574.10 1240.49 C 568.49 1242.70 562.91 1245.21 556.98 1246.41 C 545.43 1246.35 535.27 1240.11 524.69 1236.31 C 484.86 1219.48 443.92 1205.48 403.85 1189.25 C 391.10 1183.97 378.29 1178.75 365.91 1172.62 C 378.32 1169.82 390.34 1165.40 402.90 1163.27 Z" />
<path fill="#c2edec" opacity="1.00" d=" M 283.08 1188.24 C 296.05 1185.26 308.88 1181.46 322.11 1179.75 C 333.19 1178.29 344.76 1178.56 355.35 1182.45 C 415.24 1207.86 477.28 1228.00 536.45 1255.15 C 530.63 1258.94 524.43 1262.14 518.26 1265.32 C 509.31 1269.67 498.84 1272.97 488.97 1269.84 C 447.74 1255.11 407.21 1238.48 366.44 1222.54 C 348.47 1215.34 330.15 1209.06 312.15 1201.95 C 302.26 1197.85 292.25 1193.81 283.08 1188.24 Z" />
<path fill="#c2edec" opacity="1.00" d=" M 251.86 1181.50 C 252.34 1181.33 253.32 1181.00 253.81 1180.84 L 253.60 1181.70 L 252.60 1182.04 L 251.86 1181.50 Z" />
<path fill="#c2edec" opacity="1.00" d=" M 246.88 1182.49 C 247.37 1182.34 248.34 1182.03 248.83 1181.87 L 248.60 1182.72 C 248.17 1182.66 247.31 1182.55 246.88 1182.49 Z" />
<path fill="#c2edec" opacity="1.00" d=" M 244.16 1195.49 C 254.67 1194.12 265.65 1195.15 275.29 1199.75 C 318.02 1216.95 361.07 1233.31 404.02 1249.96 C 427.73 1259.00 451.29 1268.42 474.98 1277.51 C 470.38 1287.38 465.31 1297.08 461.80 1307.43 C 423.26 1292.53 384.68 1277.68 346.04 1263.03 C 301.39 1246.01 256.81 1228.74 212.88 1209.92 C 209.24 1208.13 205.19 1207.13 201.88 1204.74 C 216.05 1201.98 229.79 1197.16 244.16 1195.49 Z" />
<path fill="#c2edec" opacity="1.00" d=" M 152.88 1201.49 C 153.37 1201.33 154.34 1200.99 154.83 1200.82 L 154.62 1201.68 L 153.63 1202.02 L 152.88 1201.49 Z" />
<path fill="#c2edec" opacity="1.00" d=" M 123.83 1207.47 C 124.32 1207.30 125.30 1206.97 125.79 1206.80 L 125.57 1207.66 C 125.14 1207.61 124.26 1207.52 123.83 1207.47 Z" />
<path fill="#c2edec" opacity="1.00" d=" M 157.95 1212.17 C 167.83 1210.57 178.27 1210.52 187.73 1214.18 C 269.58 1245.40 350.87 1278.07 432.72 1309.27 C 442.69 1312.97 452.54 1316.97 462.61 1320.40 C 468.57 1322.66 473.05 1327.68 475.88 1333.27 C 480.88 1342.93 482.58 1353.84 486.70 1363.86 C 380.40 1326.61 276.56 1282.76 171.14 1243.15 C 153.50 1236.45 135.70 1229.97 118.79 1221.56 C 131.96 1218.93 144.68 1214.35 157.95 1212.17 Z" />
<path fill="#c2edec" opacity="1.00" d=" M 75.87 1217.56 C 76.35 1217.38 77.32 1217.01 77.80 1216.83 L 77.61 1217.69 L 76.63 1218.07 L 75.87 1217.56 Z" />
<path fill="#c2edec" opacity="1.00" d=" M 61.86 1220.56 C 62.34 1220.37 63.30 1220.01 63.78 1219.82 L 63.60 1220.68 C 63.17 1220.65 62.30 1220.59 61.86 1220.56 Z" />
<path fill="#c2edec" opacity="1.00" d=" M 47.85 1223.54 C 48.33 1223.36 49.29 1222.99 49.78 1222.81 L 49.59 1223.67 C 49.16 1223.64 48.28 1223.58 47.85 1223.54 Z" />
<path fill="#c2edec" opacity="1.00" d=" M 24.87 1228.53 C 25.35 1228.34 26.31 1227.97 26.79 1227.79 L 26.61 1228.65 C 26.18 1228.62 25.31 1228.56 24.87 1228.53 Z" />
<path fill="#c2edec" opacity="1.00" d=" M 71.38 1229.58 C 83.11 1227.05 95.75 1226.29 107.14 1230.74 C 232.25 1279.88 357.71 1328.13 483.00 1376.81 C 488.92 1379.45 492.80 1385.13 495.00 1391.03 C 498.47 1400.08 499.50 1409.84 502.85 1418.94 C 362.58 1366.76 223.69 1310.97 83.95 1257.42 C 71.47 1252.65 59.05 1247.71 46.97 1241.99 C 44.47 1240.77 41.80 1239.80 39.64 1238.00 C 50.24 1235.27 60.68 1231.93 71.38 1229.58 Z" />
<path fill="#c2edec" opacity="1.00" d=" M 17.76 1246.32 C 39.04 1252.50 59.78 1260.38 80.39 1268.50 C 118.19 1283.50 156.18 1298.02 194.08 1312.77 C 286.34 1348.64 378.55 1384.64 470.99 1420.06 C 481.87 1424.13 493.30 1427.28 503.02 1433.86 C 509.20 1438.13 514.75 1444.18 516.20 1451.79 C 517.11 1456.35 518.42 1460.86 518.78 1465.53 C 515.49 1467.13 512.35 1469.07 508.92 1470.38 C 502.44 1468.47 496.29 1465.55 490.05 1462.98 C 469.75 1454.18 448.90 1446.75 428.31 1438.68 C 310.59 1393.15 192.97 1347.34 75.36 1301.53 C 55.81 1293.41 35.71 1286.66 16.20 1278.46 C 16.85 1267.75 17.36 1257.03 17.76 1246.32 Z" />
</g>
<g id="#ffffffff">
<path fill="#ffffff" opacity="1.00" d=" M 557.78 203.84 C 559.94 202.83 562.09 201.76 564.41 201.15 C 547.65 209.97 530.33 217.71 512.88 225.03 C 527.70 217.66 542.80 210.88 557.78 203.84 Z" />
<path fill="#ffffff" opacity="1.00" d=" M 1054.13 229.95 C 1055.16 233.93 1053.99 238.01 1054.19 242.05 C 1054.55 255.69 1055.02 269.34 1055.02 283.00 C 1055.05 302.33 1056.00 321.64 1056.01 340.97 C 1056.04 366.66 1056.81 392.33 1056.76 418.02 C 1056.98 435.67 1056.60 453.33 1056.82 470.99 C 1057.15 495.61 1061.28 520.67 1055.40 544.95 L 1055.45 544.47 C 1056.02 529.02 1055.23 513.53 1055.23 498.06 C 1054.76 467.84 1054.60 437.61 1054.42 407.38 C 1055.22 395.62 1054.36 383.81 1054.57 372.02 C 1054.44 366.23 1054.87 360.43 1054.10 354.67 C 1053.83 313.10 1053.52 271.51 1054.13 229.95 Z" />
<path fill="#ffffff" opacity="1.00" d=" M 1035.11 261.39 C 1037.86 260.11 1040.89 259.65 1043.83 258.91 C 1042.39 352.64 1043.97 446.40 1042.92 540.12 C 1042.10 546.41 1036.70 550.82 1031.23 553.27 C 1028.50 554.32 1025.75 556.08 1022.75 555.83 C 1022.28 556.03 1021.33 556.44 1020.86 556.64 L 1019.99 557.25 L 1018.78 556.97 C 1018.30 557.15 1017.36 557.52 1016.89 557.70 C 993.99 562.81 970.84 567.00 947.85 571.76 C 881.59 585.04 815.32 598.28 749.07 611.62 C 746.31 612.03 743.57 613.22 740.77 612.79 C 740.28 612.96 739.31 613.31 738.82 613.48 C 734.56 614.49 730.15 615.99 725.76 615.80 C 725.28 615.98 724.31 616.33 723.83 616.51 C 723.07 616.59 721.54 616.76 720.77 616.84 C 720.29 617.00 719.33 617.34 718.85 617.51 C 714.63 618.86 710.16 619.28 705.86 620.35 C 704.19 620.58 702.47 621.31 700.81 620.84 C 700.32 621.01 699.35 621.35 698.86 621.51 C 686.03 624.61 672.95 626.79 660.03 629.54 C 638.65 633.88 617.25 638.10 595.88 642.50 C 594.54 642.69 593.14 643.19 591.80 642.78 C 591.32 642.95 590.34 643.29 589.85 643.46 C 587.29 644.30 584.51 645.16 581.80 644.79 C 581.31 644.96 580.33 645.30 579.85 645.47 C 577.28 646.33 574.49 647.17 571.77 646.79 C 571.29 646.97 570.33 647.34 569.86 647.53 C 569.09 647.60 567.54 647.76 566.77 647.84 C 566.30 648.00 565.34 648.33 564.86 648.50 C 564.09 648.59 562.55 648.77 561.78 648.86 C 561.30 649.02 560.33 649.34 559.84 649.50 C 557.27 650.35 554.47 651.18 551.76 650.82 C 551.28 651.01 550.32 651.37 549.85 651.56 C 540.34 653.90 530.63 655.43 521.06 657.56 C 519.66 657.72 518.20 658.35 516.81 657.88 C 516.33 658.05 515.37 658.39 514.89 658.56 C 488.98 664.28 462.82 669.05 436.84 674.52 C 435.52 674.71 434.14 675.22 432.82 674.79 C 432.33 674.95 431.35 675.28 430.86 675.45 C 428.31 676.32 425.51 677.16 422.79 676.80 C 422.30 676.96 421.32 677.29 420.82 677.45 C 420.07 677.56 418.56 677.76 417.80 677.86 C 417.31 678.01 416.33 678.31 415.84 678.46 C 415.07 678.55 413.54 678.75 412.78 678.85 C 412.30 679.01 411.33 679.33 410.84 679.49 C 400.70 682.07 390.27 683.69 380.02 685.92 C 300.99 701.82 221.94 717.61 142.90 733.47 C 138.17 734.06 133.54 736.04 128.77 735.78 C 128.29 735.96 127.32 736.32 126.84 736.50 C 117.94 738.69 108.86 740.27 99.90 742.30 C 98.22 742.55 96.50 743.26 94.80 742.80 C 94.32 742.97 93.34 743.32 92.86 743.50 C 89.00 744.78 84.90 745.12 80.96 746.10 C 78.92 746.40 76.84 747.28 74.77 746.81 C 74.29 746.98 73.32 747.34 72.84 747.51 C 68.59 748.51 64.17 749.96 59.80 749.85 C 59.32 750.02 58.35 750.36 57.86 750.53 C 57.09 750.62 55.55 750.80 54.78 750.90 C 54.30 751.07 53.35 751.41 52.87 751.58 C 48.93 752.58 44.86 754.02 40.77 753.85 C 40.29 754.04 39.34 754.43 38.87 754.62 C 36.61 755.33 34.20 756.30 31.80 755.92 C 31.32 756.10 30.35 756.45 29.87 756.62 L 29.01 757.19 L 27.82 756.87 C 27.34 757.03 26.37 757.35 25.89 757.50 L 25.03 758.18 L 23.77 757.85 C 23.29 758.02 22.33 758.34 21.85 758.51 L 21.05 759.14 L 19.79 758.83 C 19.31 758.99 18.34 759.30 17.86 759.46 C 17.37 759.72 16.40 760.23 15.92 760.49 C 15.56 674.34 15.77 588.19 15.71 502.04 C 15.88 494.72 15.18 487.19 17.17 480.07 C 17.39 479.60 17.84 478.68 18.06 478.22 C 18.83 470.50 27.29 465.80 34.40 465.18 C 34.80 464.88 35.60 464.30 36.00 464.00 L 37.21 464.29 C 37.69 464.10 38.65 463.71 39.13 463.52 L 39.98 462.85 L 41.21 463.15 C 41.69 462.98 42.66 462.65 43.14 462.49 L 43.97 461.86 L 45.23 462.18 C 45.71 462.02 46.69 461.71 47.17 461.55 C 47.93 461.45 49.44 461.24 50.20 461.14 C 50.68 460.98 51.65 460.67 52.13 460.51 C 66.96 457.12 82.01 454.52 96.90 451.38 C 211.63 428.29 326.37 405.22 441.09 382.12 C 443.43 381.76 445.80 380.73 448.18 381.20 C 448.67 381.03 449.65 380.70 450.14 380.53 C 460.65 377.87 471.46 376.17 482.08 373.88 C 529.75 364.29 577.42 354.72 625.09 345.12 C 627.43 344.76 629.81 343.74 632.20 344.20 C 632.69 344.03 633.67 343.69 634.15 343.52 C 634.91 343.43 636.43 343.26 637.19 343.17 C 637.67 343.01 638.64 342.69 639.12 342.53 C 648.93 340.02 659.00 338.47 668.91 336.32 C 722.14 325.66 775.36 315.00 828.59 304.32 C 841.12 301.75 853.72 299.49 866.16 296.51 C 867.49 296.29 868.84 295.74 870.21 296.19 C 870.69 296.01 871.66 295.65 872.15 295.48 C 909.26 287.14 946.90 281.08 984.12 273.15 C 986.45 272.78 988.81 271.71 991.21 272.14 C 991.69 271.96 992.66 271.60 993.14 271.42 C 1000.37 269.36 1007.83 268.13 1015.11 266.19 C 1017.11 265.80 1019.14 264.87 1021.22 265.24 C 1021.71 265.05 1022.68 264.68 1023.16 264.50 L 1023.98 263.86 L 1025.21 264.17 C 1025.70 264.00 1026.67 263.68 1027.15 263.52 L 1027.96 262.85 L 1029.23 263.16 C 1029.70 262.99 1030.66 262.65 1031.14 262.48 L 1031.97 261.83 L 1033.20 262.11 C 1033.68 261.93 1034.63 261.57 1035.11 261.39 M 834.05 373.29 C 833.80 381.74 833.69 390.21 833.69 398.67 C 845.81 398.10 857.91 397.45 870.01 396.57 C 869.44 437.38 869.57 478.23 872.13 518.97 C 881.88 517.45 891.91 517.18 901.36 514.12 C 902.23 495.09 901.86 476.01 901.92 456.97 C 901.88 433.63 900.84 410.32 900.82 386.99 C 904.85 386.38 908.91 385.97 913.00 385.90 C 921.10 385.23 930.08 383.88 935.95 377.68 C 936.88 369.80 936.46 361.74 936.76 353.78 C 902.16 358.18 868.40 367.40 834.05 373.29 M 793.39 379.33 C 789.07 405.10 793.44 431.26 790.70 457.15 C 787.52 454.26 785.27 450.58 782.80 447.13 C 771.09 429.95 762.47 410.86 750.29 393.99 C 749.38 392.97 748.67 391.23 747.02 391.48 C 738.07 391.57 729.13 392.16 720.23 393.10 C 721.00 428.41 720.10 463.73 721.00 499.04 C 720.99 507.67 720.98 516.32 721.76 524.92 C 722.28 531.76 721.74 538.84 723.46 545.49 C 732.65 547.89 742.18 546.82 751.43 545.44 C 755.69 519.51 750.98 493.17 754.22 467.15 C 770.71 487.49 780.51 512.20 796.24 533.06 C 805.66 533.63 815.00 532.24 824.39 531.85 C 824.26 513.57 823.85 495.28 824.00 476.99 C 823.85 451.68 824.59 426.33 823.02 401.06 C 823.22 393.77 822.09 386.56 821.89 379.29 C 812.53 377.19 802.78 377.72 793.39 379.33 M 687.82 403.73 C 678.13 405.20 668.59 407.43 658.95 409.13 L 658.15 408.58 L 657.14 408.98 L 656.99 409.88 C 652.92 410.34 649.00 411.63 644.93 412.11 L 644.13 411.56 L 643.12 411.97 L 642.98 412.87 C 633.07 414.59 623.28 417.04 613.29 418.40 C 613.08 445.92 614.16 473.45 614.00 500.98 C 613.91 523.94 614.34 546.91 615.03 569.86 C 645.76 571.61 675.30 561.63 705.17 556.17 C 705.27 547.81 705.55 539.46 705.61 531.10 C 685.60 531.90 665.63 534.23 646.00 538.22 C 645.79 525.88 646.35 513.54 646.49 501.20 C 649.30 500.55 652.16 500.08 655.03 499.80 C 669.14 497.81 683.13 495.05 697.00 491.85 C 697.01 483.22 697.00 474.59 696.13 466.00 C 678.89 466.99 661.79 469.61 644.96 473.47 C 645.70 462.79 645.45 452.02 647.18 441.44 C 665.46 434.79 684.90 432.71 704.06 430.20 C 702.84 420.87 703.63 409.78 695.92 402.93 C 693.23 402.50 690.49 403.37 687.82 403.73 M 495.15 438.93 C 495.23 447.25 494.98 455.57 495.13 463.89 C 507.30 463.67 519.43 462.60 531.58 461.89 C 530.87 486.24 530.84 510.62 531.59 534.97 C 532.25 544.32 531.76 553.71 532.54 563.06 C 533.17 569.99 532.98 576.97 533.51 583.91 C 543.39 583.46 553.27 581.98 562.89 579.62 C 563.24 560.41 563.65 541.19 563.31 521.97 C 562.76 498.68 563.27 475.36 562.00 452.09 C 567.39 452.00 572.73 451.18 578.11 450.87 C 585.32 450.22 592.71 447.96 597.97 442.76 C 597.97 434.80 598.04 426.85 597.98 418.90 C 563.42 424.06 529.44 432.35 495.15 438.93 M 455.18 450.32 C 452.07 464.98 453.20 480.10 453.06 494.99 C 452.98 506.17 453.71 517.43 451.88 528.51 C 435.22 508.45 425.80 483.61 410.00 462.95 C 400.61 462.54 391.31 463.66 381.96 464.12 C 382.48 514.96 380.83 565.88 384.36 616.64 C 393.68 618.97 403.38 618.06 412.78 616.78 C 416.34 597.75 414.46 578.29 414.76 559.05 C 414.97 552.36 414.55 545.58 415.98 538.99 C 432.65 559.06 442.07 583.96 458.04 604.54 C 467.37 604.42 476.74 604.11 486.00 602.92 C 485.72 576.61 485.90 550.29 485.79 523.97 C 485.82 506.63 485.04 489.31 484.72 471.99 C 483.86 464.93 484.30 457.77 483.31 450.73 C 474.20 447.91 464.50 449.35 455.18 450.32 M 286.88 484.86 C 276.74 490.42 269.20 499.95 264.53 510.40 C 258.57 524.06 256.89 539.23 257.33 554.01 C 258.75 565.92 257.28 577.96 258.72 589.87 C 259.43 599.32 261.06 608.93 265.47 617.42 C 269.25 624.63 275.23 631.03 282.84 634.16 C 301.04 638.01 321.76 638.50 337.84 627.79 C 348.14 620.16 356.46 609.43 360.13 597.06 L 361.03 596.92 L 361.46 595.91 L 360.93 595.11 C 364.10 583.05 365.17 570.52 364.98 558.07 C 364.88 540.49 364.93 522.52 359.57 505.59 C 359.55 505.53 359.50 505.41 359.48 505.34 C 356.72 497.38 352.36 489.67 345.57 484.47 C 342.68 482.35 339.62 480.03 335.88 479.93 C 319.57 477.44 301.86 476.89 286.88 484.86 M 220.00 499.16 C 204.47 517.41 199.33 542.04 184.11 560.47 C 182.93 544.01 181.37 527.58 180.90 511.08 C 170.69 510.94 160.47 511.08 150.27 511.56 C 150.03 516.69 150.31 521.82 150.34 526.95 C 150.78 554.93 150.00 582.92 150.71 610.90 C 151.25 620.92 150.72 630.97 151.43 641.00 C 152.20 648.70 151.86 656.46 153.00 664.14 C 162.32 666.63 172.04 665.58 181.46 664.28 C 184.95 643.14 181.74 621.64 183.77 600.40 C 184.87 599.82 185.27 601.49 186.01 601.98 C 200.48 618.32 212.90 636.32 225.12 654.36 C 236.63 652.33 248.02 649.59 259.36 646.79 C 251.52 626.22 236.57 609.65 223.82 592.07 C 221.20 587.56 217.20 583.87 215.41 578.91 C 214.18 575.84 215.87 572.77 216.86 569.92 C 226.45 544.54 246.16 523.46 250.71 496.13 C 240.42 496.58 230.19 497.72 220.00 499.16 Z" />
<path fill="#ffffff" opacity="1.00" d=" M 376.97 285.16 C 378.23 285.31 379.50 285.45 380.78 285.57 C 380.46 290.92 386.55 292.01 390.27 293.89 C 386.55 293.82 382.84 294.02 379.13 294.02 C 378.65 291.01 378.00 288.02 376.97 285.16 Z" />
<path fill="#ffffff" opacity="1.00" d=" M 296.82 515.92 C 303.04 506.74 315.15 506.00 325.16 504.81 C 331.18 532.05 331.95 560.26 329.31 587.96 C 329.08 594.98 325.14 601.76 319.08 605.34 C 312.33 609.63 303.89 610.04 296.21 608.66 C 294.93 605.61 295.00 602.25 294.40 599.06 C 291.31 578.75 287.59 558.12 290.38 537.55 C 291.58 530.13 293.21 522.58 296.82 515.92 Z" />
<path fill="#ffffff" opacity="1.00" d=" M 358.98 869.01 C 587.10 823.16 815.16 777.02 1043.36 731.54 C 1043.10 809.00 1043.41 886.47 1043.07 963.94 C 1041.80 973.23 1042.50 982.62 1042.33 991.96 C 1042.36 998.71 1042.23 1005.46 1042.42 1012.21 C 1036.32 1016.31 1030.03 1020.10 1023.83 1024.03 C 1020.88 1025.92 1017.46 1026.80 1014.07 1027.47 C 967.22 1036.96 920.36 1046.47 873.49 1055.85 C 852.71 1060.13 831.89 1064.21 811.01 1067.88 C 803.92 1070.43 796.39 1071.29 789.07 1072.93 C 763.00 1078.23 736.91 1083.45 710.82 1088.65 C 703.13 1089.95 695.43 1091.30 687.90 1093.37 C 666.74 1098.02 645.29 1101.22 624.22 1106.23 C 590.45 1113.11 556.63 1119.75 522.88 1126.69 C 509.28 1130.50 495.29 1132.64 481.51 1135.70 C 477.25 1136.25 473.07 1138.10 468.76 1137.82 C 468.28 1137.99 467.31 1138.34 466.82 1138.52 C 462.58 1139.57 458.15 1140.98 453.78 1140.85 C 453.30 1141.03 452.34 1141.38 451.86 1141.56 C 390.65 1154.40 329.16 1166.15 267.83 1178.52 C 263.15 1179.12 258.53 1181.05 253.81 1180.84 C 253.32 1181.00 252.34 1181.33 251.86 1181.50 C 251.10 1181.59 249.58 1181.78 248.83 1181.87 C 248.34 1182.03 247.37 1182.34 246.88 1182.49 C 217.64 1188.86 188.13 1194.33 158.82 1200.55 C 157.51 1200.73 156.15 1201.25 154.83 1200.82 C 154.34 1200.99 153.37 1201.33 152.88 1201.49 C 146.05 1203.44 138.93 1204.37 132.01 1206.03 C 129.96 1206.33 127.88 1207.25 125.79 1206.80 C 125.30 1206.97 124.32 1207.30 123.83 1207.47 C 111.63 1210.53 99.14 1212.70 86.83 1215.43 C 83.83 1215.89 80.85 1217.22 77.80 1216.83 C 77.32 1217.01 76.35 1217.38 75.87 1217.56 C 71.94 1218.54 67.86 1220.01 63.78 1219.82 C 63.30 1220.01 62.34 1220.37 61.86 1220.56 C 57.92 1221.52 53.86 1223.00 49.78 1222.81 C 49.29 1222.99 48.33 1223.36 47.85 1223.54 C 43.01 1225.08 37.92 1225.71 33.00 1226.97 C 30.96 1227.30 28.88 1228.23 26.79 1227.79 C 26.31 1227.97 25.35 1228.34 24.87 1228.53 C 21.95 1229.60 18.83 1229.97 15.80 1230.64 C 15.69 1149.76 15.89 1068.88 15.53 988.01 C 15.72 974.67 14.87 961.16 17.52 948.00 C 19.44 942.08 25.18 937.23 31.23 936.29 C 31.69 936.07 32.62 935.62 33.09 935.39 C 37.62 933.84 42.42 932.37 47.20 932.17 C 47.68 931.96 48.62 931.55 49.09 931.34 C 61.93 928.30 74.97 926.10 87.89 923.38 C 161.30 908.71 234.72 894.02 308.11 879.23 C 308.88 879.20 310.42 879.15 311.20 879.12 C 311.68 878.95 312.64 878.60 313.12 878.43 C 328.31 874.93 343.71 872.21 358.98 869.01 M 788.92 855.12 L 788.13 854.56 L 787.11 854.94 L 786.94 855.83 C 778.76 857.20 770.65 859.02 762.48 860.52 C 762.45 868.88 762.23 877.24 762.33 885.60 C 774.56 885.09 786.78 884.46 798.99 883.57 C 798.10 904.36 798.14 925.19 798.58 945.99 C 799.31 958.46 798.65 970.97 799.84 983.42 C 800.08 990.96 800.10 998.52 801.10 1006.02 C 810.79 1004.41 820.74 1004.12 830.17 1001.12 C 831.05 972.10 830.91 943.06 830.04 914.04 C 830.01 900.69 829.92 887.35 829.48 874.01 C 832.98 873.55 836.49 873.03 840.04 872.99 C 848.86 872.59 858.37 871.07 865.00 864.71 C 864.95 856.73 865.29 848.77 865.42 840.80 C 839.65 843.98 814.40 850.26 788.92 855.12 M 668.01 879.93 C 664.55 880.49 660.24 882.81 660.97 886.97 C 661.44 935.47 659.98 984.06 663.53 1032.46 C 672.85 1034.79 682.41 1033.78 691.81 1032.70 C 694.06 1023.00 694.05 1012.94 694.00 1003.03 C 694.08 991.36 693.56 979.69 693.84 968.02 C 703.32 968.34 712.84 965.90 722.26 967.59 C 728.61 984.21 726.89 1002.39 728.17 1019.82 C 740.69 1020.44 753.20 1019.74 765.67 1018.63 C 761.35 997.79 760.09 976.35 753.95 955.89 L 754.43 955.05 L 753.96 954.07 L 753.06 953.99 C 752.60 950.07 748.83 946.62 750.46 942.61 C 750.48 942.56 750.51 942.46 750.52 942.42 C 755.22 928.55 758.76 913.78 756.50 899.08 C 755.21 892.48 752.80 885.80 748.28 880.73 C 737.37 871.67 722.33 870.97 708.86 872.47 C 695.14 874.35 681.60 877.36 668.01 879.93 M 554.07 905.32 C 553.90 941.21 554.30 977.11 554.98 1012.99 C 555.01 1027.58 554.99 1042.16 555.48 1056.74 C 586.31 1058.78 616.00 1048.59 645.97 1043.09 C 645.97 1034.73 646.02 1026.37 645.99 1018.01 C 626.07 1019.07 606.20 1021.27 586.64 1025.26 C 586.88 1012.84 587.03 1000.42 587.00 988.00 C 604.11 985.72 621.15 982.77 637.94 978.75 C 637.86 970.18 636.99 961.64 636.87 953.07 C 619.68 953.91 602.63 956.61 585.85 960.41 C 585.75 950.89 586.52 941.42 587.13 931.93 C 587.38 930.76 587.20 929.25 588.21 928.43 C 590.72 927.27 593.43 926.70 596.07 925.93 L 596.90 926.45 L 597.90 926.01 L 598.01 925.11 C 613.27 921.18 628.92 919.19 644.54 917.33 C 643.62 907.78 644.13 896.45 636.17 889.57 C 608.53 893.32 581.63 901.12 554.07 905.32 M 435.20 929.14 C 434.90 939.10 435.56 949.05 435.48 959.01 C 435.79 978.01 435.35 997.01 435.61 1016.01 C 436.09 1037.32 435.84 1058.68 438.07 1079.89 C 447.43 1082.04 457.33 1081.61 466.70 1079.73 C 469.41 1061.35 467.22 1042.70 468.20 1024.21 C 472.34 1022.38 476.66 1021.03 481.05 1019.93 L 481.87 1020.45 L 482.87 1020.02 L 482.99 1019.11 C 487.19 1018.16 491.27 1016.73 495.41 1015.54 C 495.46 1015.53 495.56 1015.49 495.61 1015.48 C 504.92 1012.40 514.37 1008.41 521.19 1001.12 C 528.81 992.63 532.16 981.23 533.65 970.14 C 534.91 957.94 533.41 944.90 526.69 934.37 C 521.92 926.69 513.93 921.18 505.12 919.24 C 481.29 917.08 458.48 925.82 435.20 929.14 M 378.34 944.28 C 370.90 958.17 366.87 973.51 361.18 988.13 C 353.52 975.06 346.71 961.52 339.29 948.32 C 327.75 951.31 316.26 954.52 304.69 957.40 C 315.14 980.51 330.77 1000.94 341.34 1023.99 C 332.75 1052.23 317.05 1077.75 308.32 1105.95 C 315.19 1105.26 322.08 1105.74 328.96 1105.42 C 334.44 1105.05 340.44 1104.45 344.87 1100.88 C 350.56 1091.53 354.07 1081.02 357.50 1070.68 C 357.52 1070.62 357.55 1070.51 357.57 1070.46 C 358.10 1068.64 358.78 1066.86 359.06 1064.99 L 359.97 1064.89 L 360.41 1063.89 L 359.90 1063.07 C 360.95 1058.57 362.35 1054.16 363.41 1049.67 C 370.81 1064.68 377.58 1080.03 385.62 1094.73 C 396.92 1092.30 408.10 1089.34 419.13 1085.92 L 419.94 1086.41 L 420.92 1085.96 L 421.04 1085.06 L 422.18 1085.13 C 410.48 1061.96 392.83 1042.08 383.22 1017.80 C 392.02 989.97 407.76 964.78 415.70 936.62 C 408.47 937.44 401.19 936.67 393.96 937.15 C 388.25 937.81 382.00 939.54 378.34 944.28 M 209.40 970.88 C 209.41 987.61 210.06 1004.33 210.00 1021.06 C 209.98 1040.06 210.04 1059.06 210.29 1078.06 C 210.39 1092.68 211.17 1107.29 211.04 1121.92 C 241.86 1124.28 271.48 1113.78 301.46 1108.55 C 301.58 1100.14 301.88 1091.73 301.74 1083.33 C 281.69 1084.45 261.66 1086.50 241.98 1090.66 C 242.18 1078.14 242.65 1065.63 242.86 1053.12 C 259.91 1051.40 276.70 1047.81 293.43 1044.20 C 292.71 1035.61 293.32 1026.97 292.39 1018.40 C 275.13 1019.37 257.94 1021.79 241.15 1025.94 C 241.98 1015.31 241.78 1004.64 243.07 994.05 C 261.26 987.15 280.77 984.91 299.97 982.76 C 299.51 973.13 299.51 961.94 291.82 954.90 C 264.09 958.84 237.01 966.22 209.40 970.88 Z" />
<path fill="#ffffff" opacity="1.00" d=" M 693.06 902.97 C 703.09 902.10 713.14 901.96 723.19 901.46 C 722.82 912.90 721.91 924.31 720.83 935.71 C 711.69 936.83 702.67 938.77 693.54 939.97 C 693.53 927.63 693.00 915.30 693.06 902.97 Z" />
<path fill="#ffffff" opacity="1.00" d=" M 467.24 949.72 C 477.44 949.60 487.62 948.77 497.83 948.94 C 498.98 957.85 502.84 967.00 499.90 975.95 C 498.69 979.84 496.09 983.42 492.38 985.27 C 484.48 989.51 475.63 991.40 466.99 993.50 C 467.42 978.91 467.40 964.31 467.24 949.72 Z" />
<path fill="#ffffff" opacity="1.00" d=" M 533.67 1143.33 C 536.30 1143.84 538.96 1143.59 541.57 1143.10 C 541.23 1145.15 541.34 1147.22 541.55 1149.30 C 538.43 1148.03 535.68 1146.04 533.67 1143.33 Z" />
<path fill="#ffffff" opacity="1.00" d=" M 477.08 1296.23 C 480.77 1294.21 484.34 1291.98 487.98 1289.88 L 488.75 1289.93 C 490.75 1291.74 489.70 1295.38 488.68 1297.64 C 486.54 1300.54 482.59 1300.26 479.39 1300.50 C 479.05 1300.10 478.37 1299.31 478.03 1298.91 C 477.71 1298.00 477.39 1297.11 477.08 1296.23 Z" />
</g>
</svg>
