<?xml version="1.0" encoding="UTF-8" ?>
<!DOCTYPE svg PUBLIC "-//W3C//DTD SVG 1.1//EN" "http://www.w3.org/Graphics/SVG/1.1/DTD/svg11.dtd">
<svg width="199pt" height="186pt" viewBox="0 0 199 186" version="1.1" xmlns="http://www.w3.org/2000/svg">
<g id="#ef9d61ff">
<path fill="#ef9d61" opacity="1.00" d=" M 119.36 2.37 C 120.00 1.52 120.83 1.12 121.87 1.15 C 147.27 0.82 172.67 0.40 198.07 0.10 C 193.82 60.39 189.56 120.67 185.35 180.96 C 185.21 182.65 184.87 184.31 184.66 186.00 L 184.24 186.00 C 184.34 185.85 184.54 185.54 184.63 185.38 C 127.10 167.66 69.59 149.82 12.07 132.05 C 8.16 130.75 4.12 129.85 0.34 128.17 L 0.00 128.96 L 0.00 128.24 C 1.71 126.87 3.21 125.28 4.68 123.66 C 42.89 83.21 81.17 42.83 119.36 2.37 Z" />
</g>
</svg>
